<?xml version="1.0" standalone="no"?>
<!DOCTYPE svg PUBLIC "-//W3C//DTD SVG 1.1//EN" "http://www.w3.org/Graphics/SVG/1.1/DTD/svg11.dtd" >
<svg xmlns="http://www.w3.org/2000/svg">
<metadata>
This is a custom SVG webfont generated by Font Squirrel.
Copyright   : Typeface  your company 2008 All Rights Reserved
Designer    : Dhany Arliyanti
</metadata>
<defs>
<font id="webfontR70IbXif" horiz-adv-x="1355" >
<font-face units-per-em="2048" ascent="1638" descent="-410" />
<missing-glyph horiz-adv-x="507" />
<glyph unicode=" "  horiz-adv-x="507" />
<glyph unicode="&#x09;" horiz-adv-x="507" />
<glyph unicode="&#xa0;" horiz-adv-x="507" />
<glyph unicode="!" horiz-adv-x="645" d="M207 188v140l6 8h45q129 0 172 -111l8 -49v-170l-8 -6h-53q-125 0 -164 125zM207 676v1118l6 6h68q139 0 157 -170v-1134l-8 -9h-57q-123 0 -162 138z" />
<glyph unicode="&#x22;" horiz-adv-x="1036" d="M203 1350v442l8 8h76q121 0 164 -131l4 -37v-487l-9 -8h-45q-198 0 -198 213zM578 1337v455l8 8h76q115 0 163 -131l4 -45v-479l-8 -8h-59q-133 0 -176 133z" />
<glyph unicode="#" horiz-adv-x="2097" d="M203 688v55l8 9h438l41 188h-276q-180 0 -211 156v75l8 9h530l109 508l4 4h43q106 0 145 -93l13 -75q0 -27 -70 -340l4 -4h234l106 508l4 4h53q106 0 144 -115l4 -57q-16 -117 -68 -336l4 -4h228q133 0 192 -123l4 -29v-80l-8 -8h-473l-39 -188h281q172 0 223 -105 q16 -27 16 -59v-72l-8 -8h-563l-109 -508h-63q-115 0 -137 147v37q0 33 63 324h-235l-109 -508h-63q-125 0 -140 168q2 47 68 340h-172q-164 0 -213 117q-10 20 -10 63zM895 752h235l39 188h-235z" />
<glyph unicode="$" horiz-adv-x="1249" d="M207 25q0 137 162 155h254q147 0 198 123q20 49 21 115v94q0 221 -201 274l-174 21q-86 10 -178 96q-82 100 -82 250v8q0 281 239 379l68 21v233l8 6h49q98 0 146 -90q14 -31 14 -70v-67h320l8 -8v-70q0 -94 -113 -135l-31 -4h-247q-164 0 -201 -76q-41 -63 -41 -133 q0 -135 145 -135q322 0 445 -285q43 -109 43 -205v-123q0 -297 -232 -401q-47 -20 -96 -29v-233l-6 -6h-53q-117 0 -154 114l-4 29v92h-301l-6 6v54z" />
<glyph unicode="%" horiz-adv-x="1220" d="M199 197q0 59 108 297l551 1296h4q152 -66 152 -174v-17q0 -51 -103 -272l-561 -1319h-4q-147 68 -147 189zM203 1425v367q0 8 10 8q229 0 297 -170q10 -31 10 -88v-332l-8 -12q-201 0 -291 139q-18 51 -18 88zM698 254v338q0 6 17 10q203 0 282 -143q25 -45 25 -125 v-326l-8 -8h-17q-209 0 -286 164q-13 49 -13 90z" />
<glyph unicode="&#x26;" horiz-adv-x="1366" d="M205 432v332q0 53 39 104q-39 47 -39 133v310q0 340 262 450q104 35 178 35h510l8 -6v-37q0 -131 -90 -178q-41 -20 -84 -21h-272q-270 0 -271 -278v-211q0 -76 60 -76h121v180l4 5v4q164 0 213 -91q25 -39 24 -81v-471l-8 -9h-47q-186 20 -186 172v50h-133 q-47 0 -48 -50v-143q0 -223 109 -283q63 -35 162 -34h434l8 -9v-69q0 -121 -143 -160h-363q-322 0 -432 311q-16 86 -16 121z" />
<glyph unicode="'" horiz-adv-x="659" d="M203 1341v449l8 6h72q152 0 172 -174v-481l-9 -8h-45q-198 -1 -198 208z" />
<glyph unicode="(" horiz-adv-x="1030" d="M205 465v870q0 283 219 418q94 47 219 47h168l6 -8v-10l4 -51q0 -121 -155 -172q-215 -40 -215 -216v-878q0 -162 163 -215q113 -23 160 -66q47 -70 47 -114l-4 -50v-12l-6 -8h-209q-219 0 -338 211q-59 129 -59 254z" />
<glyph unicode=")" horiz-adv-x="1036" d="M203 25v47q0 152 227 188q152 61 152 236v852q0 172 -148 231q-154 31 -184 78q-47 49 -47 119v36q0 29 10 31h158q313 0 420 -252q43 -121 43 -278v-785q0 -399 -277 -503q-74 -25 -139 -25h-205q-10 2 -10 25z" />
<glyph unicode="*" horiz-adv-x="1386" d="M199 1354v67l8 9h186v4q-63 76 -63 155q0 76 96 154l139 -137h4v188l9 8h67q135 0 166 -196l139 137h4q92 -74 93 -154v-10q0 -68 -62 -141v-8q141 0 193 -132l4 -41v-59l-8 -8h-193q66 -78 66 -152v-8q0 -74 -93 -147h-4l-139 135v-193l-8 -8h-58q-152 0 -176 189v8h-4 l-139 -135q-96 74 -96 168q4 66 63 143q-194 27 -194 164z" />
<glyph unicode="+" horiz-adv-x="1386" d="M201 805v67l8 9h356l8 8v354l9 8h67q137 0 164 -198v-172h176q139 0 193 -133l4 -39v-62l-8 -8h-365v-363l-8 -8h-55q-152 0 -177 189v182h-159q-150 0 -205 117z" />
<glyph unicode="," horiz-adv-x="747" d="M205 -133q0 49 76 67q16 49 16 80v121q12 59 72 60q123 0 168 -105l12 -55q0 -164 -131 -219q-53 -20 -121 -21q-92 0 -92 72z" />
<glyph unicode="-" horiz-adv-x="1382" d="M203 825v58l8 8h786q147 0 185 -154v-88l-8 -8h-773q-147 0 -190 125z" />
<glyph unicode="." horiz-adv-x="647" d="M201 68v84q0 100 100 100h59q92 0 93 -76v-92q0 -84 -84 -84h-93q-55 0 -75 68z" />
<glyph unicode="/" horiz-adv-x="1228" d="M205 182v25q0 61 106 280l555 1313h13q152 -74 151 -188q0 -61 -123 -332l-545 -1280h-4q-153 69 -153 182z" />
<glyph unicode="0" d="M207 432v924q0 291 246 401q84 39 217 39h30q328 0 433 -285q25 -94 24 -196v-862q0 -326 -295 -439q-63 -14 -102 -14h-152q-200 0 -332 184q-69 109 -69 248zM449 449q0 -178 147 -205l35 -4h96q186 0 186 235v858q0 176 -112 205q-29 12 -119 18q-233 0 -233 -184 v-923z" />
<glyph unicode="1" horiz-adv-x="1040" d="M203 1720v72l8 8h192q260 0 390 -235q43 -92 43 -267v-1290l-9 -8h-4q-231 0 -231 178v1182q0 145 -113 186q0 8 -141 15q-135 45 -135 159z" />
<glyph unicode="2" horiz-adv-x="1349" d="M207 178q0 76 258 385q449 547 448 805q0 188 -208 188h-332q-127 0 -162 138l-4 32v64l6 6h492q305 0 417 -254q31 -92 31 -162v-51q0 -338 -627 -1089v-4h453q117 0 166 -115l8 -35v-78l-8 -8h-780q-111 0 -154 127z" />
<glyph unicode="3" d="M205 174v57l8 9h514q132 0 178 147l8 82v252q0 39 -57 39h-160q-141 0 -184 131l-4 47v53l6 8h338q61 0 61 43v314q0 147 -135 192q-33 12 -100 13h-309q-119 0 -160 133l-4 30v68l8 8h492q303 0 413 -252q35 -88 35 -188v-377q0 -55 -39 -109q43 -34 43 -147v-244 q0 -371 -297 -465q-68 -18 -139 -18h-342q-133 0 -170 135z" />
<glyph unicode="4" horiz-adv-x="1359" d="M205 1208v582l8 6h74q111 0 153 -123l9 -78v-161l-5 -226q0 -108 99 -166q57 -23 123 -22h247v772l9 8h43q193 0 192 -205v-1587l-6 -8h-76q-111 0 -153 131l-9 68v579h-221q-391 0 -475 330z" />
<glyph unicode="5" horiz-adv-x="1359" d="M205 8v70q0 106 133 153l53 9h309q178 0 209 168l4 36v134q0 137 -112 182q-49 14 -80 14h-322q-131 0 -180 100q-14 37 -14 66v694q0 109 121 156q23 10 84 10h737l6 -8v-57q0 -127 -131 -170l-66 -9h-512v-532l9 -8h286q279 0 383 -268q35 -88 35 -187v-65 q0 -352 -252 -457q-92 -39 -196 -39h-496z" />
<glyph unicode="6" horiz-adv-x="1359" d="M205 457v917q0 301 282 404q86 23 166 22h494l6 -8v-68q0 -117 -119 -159l-35 -4h-321q-154 0 -195 -74q-35 -57 -34 -127v-336h256q299 0 413 -256q35 -92 35 -160v-166q0 -295 -258 -407q-104 -35 -207 -35h-39q-322 0 -422 305q-22 72 -22 152zM444 438 q0 -108 86 -172q41 -27 119 -26h51q175 0 209 159l4 58v112q0 174 -153 205l-43 4h-260l-4 4h-4v-196z" />
<glyph unicode="7" horiz-adv-x="1349" d="M172 0q47 117 702 1554l-4 2h-497q-123 0 -166 144l-8 92l4 4h766q182 -18 182 -166v-26q0 -88 -651 -1446q-86 -158 -228 -158h-100z" />
<glyph unicode="8" d="M207 428v152q0 188 119 321q-119 152 -119 301v170q0 260 235 389q102 39 181 39h51q227 0 348 -110q135 -132 135 -332v-152q0 -184 -125 -309q125 -131 125 -322v-143q0 -295 -266 -401q-100 -31 -195 -31h-43q-307 0 -411 258q-35 100 -35 170zM449 461 q0 -225 235 -225q172 0 221 153q12 57 13 133v62q0 197 -252 196h-9q-162 0 -200 -131l-8 -108v-80zM449 1241q0 -162 116 -205q49 -16 82 -16h62q147 0 196 156q12 46 13 122v66q0 197 -248 197h-17q-156 0 -192 -123q-12 -33 -12 -101v-96z" />
<glyph unicode="9" horiz-adv-x="1353" d="M207 8v49q0 125 102 170q43 12 72 13h340q137 0 180 118l12 91v323h-200q-328 0 -434 191q-72 106 -72 254v106q0 332 262 438q115 35 231 35q324 0 430 -297q23 -72 23 -145v-969q0 -217 -217 -340q-111 -45 -197 -45h-526zM446 1243q0 -174 127 -215q37 -12 101 -12 h239v334q0 139 -108 192q-37 12 -66 12h-100q-145 0 -186 -151l-7 -96v-64z" />
<glyph unicode=":" horiz-adv-x="655" d="M203 406v151l8 8h63q133 0 177 -135l4 -37v-182l-9 -8h-45q-143 0 -188 119q-10 35 -10 84zM203 946v144l8 8h76q139 0 168 -172v-181l-9 -8h-75q-123 0 -164 154z" />
<glyph unicode=";" horiz-adv-x="655" d="M115 -96q0 55 71 67q20 35 21 97v106q12 61 72 62q176 -18 176 -152v-41q0 -154 -172 -201l-76 -8q-92 0 -92 70zM203 950v144l8 8h51q125 0 172 -96q20 -39 21 -76v-185l-9 -8h-57q-139 0 -182 150z" />
<glyph unicode="&#x37e;" horiz-adv-x="655" d="M115 -96q0 55 71 67q20 35 21 97v106q12 61 72 62q176 -18 176 -152v-41q0 -154 -172 -201l-76 -8q-92 0 -92 70zM203 950v144l8 8h51q125 0 172 -96q20 -39 21 -76v-185l-9 -8h-57q-139 0 -182 150z" />
<glyph unicode="&#x3c;" horiz-adv-x="944" d="M203 532v189q414 514 434 530h2q115 -66 115 -149v-33q0 -41 -189 -266l-139 -176q324 -408 324 -420l4 -37v-20q0 -84 -117 -150z" />
<glyph unicode="=" horiz-adv-x="1386" d="M203 559v70l8 8h768q154 0 203 -141l4 -43v-54l-8 -8h-732q-174 0 -229 101q-14 36 -14 67zM203 924v67l8 8h770q131 0 188 -106q16 -33 17 -88v-37l-8 -8h-785q-190 27 -190 164z" />
<glyph unicode="&#x3e;" horiz-adv-x="952" d="M205 156q0 71 86 159l241 312v6q-301 369 -319 411l-8 54q0 94 125 153l426 -526v-195l-430 -530q-121 66 -121 156z" />
<glyph unicode="?" horiz-adv-x="1296" d="M203 1747v47l6 6h461q301 0 411 -278q23 -90 23 -142v-176q0 -182 -166 -323q-94 -63 -180 -78v-377l-6 -6h-50q-121 0 -170 129l-6 51v291q0 106 113 139q176 0 229 174l9 80v49q0 182 -175 232l-110 8h-240q-102 0 -143 110zM530 184v140l7 8h65q111 0 152 -119 q8 -14 8 -57v-150l-8 -6h-62q-109 0 -155 119z" />
<glyph unicode="@" horiz-adv-x="1916" d="M199 188v936q0 336 307 453q78 14 125 14h786q197 0 277 -198q20 -53 20 -113v-1112q0 -120 -135 -160q-16 -8 -53 -8h-185q-82 0 -127 59q-98 -59 -239 -59h-420l-8 8v748q0 273 252 368q74 27 147 27h449l8 -6v-830q0 -63 63 -63h13l4 4v981q0 106 -109 106h-651 q-276 0 -277 -215v-1120h-79q-111 0 -160 123zM782 231h164q156 0 211 105q20 35 21 84v500h-193q-175 0 -203 -160v-529z" />
<glyph unicode="A" horiz-adv-x="1359" d="M205 195v1597l8 8h526q293 0 398 -280q23 -90 22 -136v-1376l-8 -8h-23q-170 0 -202 125q-12 27 -13 96v422h-467v-631l-8 -8h-65q-117 0 -160 125zM446 885h467v504q0 135 -143 165l-47 5h-277v-674z" />
<glyph unicode="B" horiz-adv-x="1349" d="M207 8v1782l6 6h487q313 0 426 -262q27 -61 27 -113v-309q0 -96 -113 -213q113 -102 113 -211v-282q0 -219 -219 -357q-98 -49 -213 -49h-508zM449 240h264q154 0 196 143v235q0 121 -174 148l-51 2h-235v-528zM449 1010h217q207 10 243 118l4 39q0 301 -22 301 q-49 88 -199 88h-243v-546z" />
<glyph unicode="C" d="M207 457v923q0 250 223 375q90 45 248 45h283q197 0 196 -201v-30l-8 -8h-487q-162 0 -205 -115q-10 -45 -11 -160v-794q0 -174 68 -218q55 -31 125 -30h317q141 0 189 -109l8 -61v-62l-8 -8h-402l-139 -4q-106 0 -248 92q-149 119 -149 365z" />
<glyph unicode="D" horiz-adv-x="1349" d="M205 8v1778l4 4v2l180 4h299q326 0 432 -254q35 -100 35 -217v-823q0 -354 -227 -457q-98 -45 -221 -45h-494zM449 240h258q150 0 186 116q18 46 18 136v788q0 197 -75 246q-53 31 -213 30h-174v-1316z" />
<glyph unicode="E" horiz-adv-x="1353" d="M205 453v897q0 309 278 424q78 23 197 22h256q219 0 219 -201v-30l-6 -9h-473q-152 0 -201 -79q-31 -59 -31 -187v-270h410q132 0 178 -117l8 -57v-58l-8 -8h-579l-9 -8v-266q0 -178 62 -219q41 -47 151 -47h306q137 0 182 -115l6 -68v-49l-6 -8h-504q-295 0 -410 274 q-26 83 -26 179z" />
<glyph unicode="F" horiz-adv-x="1353" d="M207 182v1178q0 307 285 414q61 23 155 22h498l8 -6v-74q0 -131 -164 -160h-262q-164 0 -201 -30q-78 -47 -77 -162v-483h579q12 0 12 -50q0 -139 -122 -182q-25 -8 -52 -8h-417v-633l-7 -8h-73q-111 0 -156 127z" />
<glyph unicode="G" horiz-adv-x="1353" d="M207 471v858q0 378 344 461l102 6h492l8 -6v-66q0 -143 -170 -168h-305q-158 0 -201 -83q-31 -25 -31 -283v-664q0 -195 66 -247q74 -43 166 -43q236 0 235 200v205h-120q-141 0 -189 109q-12 41 -12 69v53l8 9h356q143 0 185 -109l12 -57v-707l-8 -8h-66q-80 0 -123 57 h-4q-96 -57 -209 -57h-96q-307 0 -409 270q-31 78 -31 201z" />
<glyph unicode="H" horiz-adv-x="1347" d="M203 178v1624h43q154 0 196 -135l4 -43v-465h463v635l9 8h34q158 0 197 -143v-1651l-2 -4v-4q-186 0 -229 113l-9 57v750h-463v-912l-4 -4v-4q-239 0 -239 178z" />
<glyph unicode="I" horiz-adv-x="645" d="M205 193v1599l8 8h35q139 0 188 -110q12 -25 13 -64v-1618l-5 -4v-4q-239 0 -239 193z" />
<glyph unicode="J" horiz-adv-x="1249" d="M102 8v58q0 152 187 174h340q133 0 170 127q12 37 12 82v1107h-186q-115 0 -158 144l-4 35v55l6 6l412 -4h53q90 0 117 -88v-1264q0 -317 -303 -426q-59 -14 -136 -14h-501z" />
<glyph unicode="K" horiz-adv-x="1349" d="M205 188v1602l8 6h49q152 0 182 -141v-500h218q162 0 212 96q41 68 41 195v344l9 6h47q184 0 184 -205v-157q0 -266 -100 -375q96 -109 96 -244v-807l-6 -8h-68q-143 0 -166 178v623q0 89 -92 110l-31 4h-344v-897l-8 -6h-65q-102 0 -152 105q-14 28 -14 71z" />
<glyph unicode="L" horiz-adv-x="1337" d="M205 440v1350l8 6h45q139 0 178 -115q12 -23 13 -73v-1139q0 -162 81 -207q51 -23 109 -22h332q135 0 178 -123l2 -39v-70l-6 -8h-510q-330 0 -422 340z" />
<glyph unicode="M" horiz-adv-x="2064" d="M205 160v1632l8 8h14q137 0 176 -57q102 57 297 57q211 0 334 -123q129 123 309 123h78q307 0 414 -270q29 -68 29 -205v-1317l-9 -8h-51q-141 0 -182 139l-2 60v1161q0 141 -98 178q-51 23 -148 23h-18q-203 0 -203 -244v-1309l-6 -8h-43q-195 0 -195 199v1187 q0 174 -243 175q-217 0 -217 -201v-1116l-5 -240l-4 -4h-67q-119 0 -164 127z" />
<glyph unicode="N" horiz-adv-x="1359" d="M207 174v1612q0 12 84 14q68 0 129 -53q74 53 262 53h4q319 0 426 -223q43 -98 43 -199v-1370l-8 -8h-53q-139 0 -179 143v1184q0 166 -90 207q-51 27 -166 27q-209 0 -208 -218v-1335l-9 -8h-57q-137 0 -174 135z" />
<glyph unicode="O" horiz-adv-x="1353" d="M205 422v938q0 267 221 387q94 49 244 49h30q317 0 424 -266q31 -86 31 -207v-858q0 -365 -324 -457l-73 -8h-160q-203 0 -342 213q-51 121 -51 209zM449 457q0 -145 88 -195q45 -23 94 -22h88q193 0 192 247v842q0 176 -106 209q-35 10 -125 18q-231 0 -231 -196v-903z " />
<glyph unicode="P" horiz-adv-x="1359" d="M205 178v1614l8 8h45q98 0 156 -61q74 61 209 61h51q238 0 321 -84q106 -74 152 -252l10 -82l-4 -26v-416q0 -242 -227 -367q-100 -47 -260 -47h-217v-518l-9 -8h-71q-121 0 -160 143zM449 764l251 4q168 0 205 145l8 103v340q0 135 -104 188q-43 16 -88 17h-29 q-195 0 -231 -115q-12 -49 -12 -107v-575z" />
<glyph unicode="Q" horiz-adv-x="1462" d="M205 436v916q0 313 268 417q84 31 201 31h16q317 0 426 -239q43 -90 43 -213v-908q0 -221 -168 -364q22 -6 142 -13q80 -29 110 -94q16 -49 17 -98v-37l-9 -6h-200q-219 0 -346 170h-105q-203 0 -334 197q-61 112 -61 241zM449 471q0 -193 129 -225l47 -8v4l-4 39l4 143 v25q15 18 73 18h19q111 0 147 -135l4 -33q47 51 47 176v873q0 209 -206 208h-54q-207 0 -206 -196v-889z" />
<glyph unicode="R" d="M205 178v1612l8 6h45q96 0 152 -57h4q84 57 209 57h51q258 0 340 -102q137 -135 137 -308v-436q0 -178 -119 -305q123 -113 123 -383v-254l-6 -8h-43q-139 0 -186 113l-9 57v166q0 139 -135 182l-69 8h-258v-518l-9 -8h-73q-119 0 -158 143zM449 768h266l16 -2 q59 0 127 53q53 55 53 209v326q0 168 -145 200l-47 2h-27q-164 0 -209 -71q-35 -47 -34 -135v-582z" />
<glyph unicode="S" d="M205 8v62q0 129 143 166l39 4h297q180 0 217 125q12 49 12 92v151q0 223 -149 279q-66 35 -217 35q-154 35 -225 108q-117 121 -117 301v8q0 319 252 426q92 35 209 35h481l6 -8v-76q0 -119 -139 -155h-266q-252 0 -273 -84q-27 -35 -26 -113v-25q0 -131 94 -165 q18 -12 200 -23q193 -47 287 -168q123 -163 123 -356v-183q0 -285 -240 -401q-98 -43 -188 -43h-512z" />
<glyph unicode="T" horiz-adv-x="1349" d="M205 1565q0 193 125 227l30 8h791l8 -8v-70q0 -109 -123 -153l-35 -4h-186v-1553q0 -12 -78 -12q-168 23 -168 168v1397h-282h-82z" />
<glyph unicode="U" horiz-adv-x="1353" d="M205 422v1364l8 6h74q109 0 153 -119l9 -57v-1176q0 -145 114 -188l86 -16q150 0 213 63q49 52 49 123v1368l9 6h59q127 0 170 -127l6 -88v-1059q0 -322 -149 -422q-119 -100 -314 -100h-61q-249 0 -375 215q-51 109 -51 207z" />
<glyph unicode="V" horiz-adv-x="1386" d="M205 1796l4 4h65q150 0 201 -141l217 -1043h4q207 1014 230 1078q61 106 188 106h64q8 0 8 -10l-381 -1786l-4 -4h-53q-186 0 -218 258z" />
<glyph unicode="W" horiz-adv-x="2060" d="M203 422l4 153v1211l6 6h33l28 4q174 -20 175 -174v-1200q0 -138 147 -178l53 -4h47q131 0 183 82q35 51 34 127v1228l9 9h34q133 0 181 -103q16 -39 16 -72v-1036q0 -163 74 -196q59 -39 135 -39h31q168 0 213 118q14 29 14 86v1190q0 106 129 156l98 6h4l9 -6v-1341 q0 -315 -275 -422q-82 -27 -166 -27h-82q-174 0 -309 127q-133 -127 -297 -127h-82q-295 0 -403 244q-31 67 -43 178z" />
<glyph unicode="X" horiz-adv-x="1509" d="M201 170v428q0 180 143 305q-139 129 -139 281v602l8 6h78q127 0 174 -129l4 -41v-389q0 -141 115 -186q27 -12 116 -23q236 0 281 53q66 61 66 164v549l8 6h65q137 0 187 -133l4 -37v-397q0 -195 -144 -326q143 -137 144 -280v-615l-8 -8h-78q-125 0 -174 131l-4 35v383 q0 166 -115 209q-74 31 -178 30q-240 0 -279 -143l-6 -53v-584l-8 -8h-78q-151 0 -182 170z" />
<glyph unicode="Y" horiz-adv-x="1349" d="M199 178v53l8 9h483q164 0 201 118q14 37 14 78v131q-88 -41 -227 -41h-19q-324 0 -430 267q-31 86 -30 161v832l8 6h74q115 0 153 -133l4 -37v-575q0 -201 86 -250q57 -31 113 -31h6q197 0 248 106q14 35 14 74v844l8 6h48q131 0 174 -106q16 -49 16 -103v-1091 q0 -291 -156 -400q-123 -96 -252 -96h-383q-101 0 -147 104q-14 29 -14 74z" />
<glyph unicode="Z" d="M205 184q0 121 665 1372h-508q-106 0 -149 113l-8 47v74l8 6h737q156 0 199 -123l2 -47q0 -131 -641 -1343l-18 -43h657l6 -9v-26q0 -152 -115 -197l-51 -8h-606q-121 0 -174 139z" />
<glyph unicode="[" horiz-adv-x="843" d="M207 168v1472q0 109 133 156l41 4h262l6 -8v-57q0 -135 -139 -172l-39 -4h-22v-1313h4q156 0 190 -121l6 -43q0 -82 -10 -82h-233q-147 0 -189 109z" />
<glyph unicode="\" horiz-adv-x="1228" d="M207 1575v45q0 111 155 180q41 -78 666 -1560l4 -50q0 -125 -162 -190q-610 1425 -663 1575z" />
<glyph unicode="]" horiz-adv-x="845" d="M207 43v47q0 111 135 152l64 4v1313h-21q-131 0 -174 129l-4 30v74l6 8h266q133 0 170 -151v-1467q0 -135 -127 -174l-67 -8h-238q-10 0 -10 43z" />
<glyph unicode="^" horiz-adv-x="1466" d="M207 1161l438 639h180q33 -35 441 -639v-8q-117 -25 -148 -25q-160 0 -252 185l-133 188q-158 -254 -219 -315q-76 -57 -160 -58q-147 19 -147 33z" />
<glyph unicode="_" horiz-adv-x="1003" d="M4 -106l8 6h807q178 -25 178 -138v-59l-8 -6h-780q-152 0 -197 100l-8 49v48z" />
<glyph unicode="`" horiz-adv-x="1024" d="M283 1362q0 27 20 49q20 25 65.5 25t75.5 -19q29 -16 70 -55l256 -285h-96l-314 180q-35 20 -57 43q-20 21 -20 62z" />
<glyph unicode="a" horiz-adv-x="1337" d="M207 8v821q0 328 321 410q57 12 138 12h464l9 -8v-1235l-9 -8h-49q-94 0 -145 61q-92 -61 -248 -61h-475zM446 236h236q219 0 219 221v555h-276q-119 0 -168 -103q-10 -41 -11 -84v-589z" />
<glyph unicode="b" horiz-adv-x="1386" d="M205 4v1790l8 8h18q158 0 199 -84q15 -34 19 -73l-5 -205v-168h265q315 0 424 -287q23 -72 22 -135v-442q0 -213 -217 -355q-78 -53 -203 -53h-61q-166 0 -266 57h-5q-39 -57 -194 -57zM442 1030l2 -504v-18q0 -201 91 -244q61 -25 139 -24h53q154 0 184 172l4 69v336 q0 213 -221 213h-252z" />
<glyph unicode="c" horiz-adv-x="1331" d="M207 459v356q0 279 235 397q90 39 191 39h340q108 0 160 -110l8 -35v-84l-8 -6h-510q-131 0 -172 -144l-9 -116v-256q0 -207 97 -242q51 -23 141 -22h289q172 -18 172 -166v-62l-8 -8h-492q-289 0 -397 244q-37 98 -37 215z" />
<glyph unicode="d" horiz-adv-x="1349" d="M205 487v322q0 310 239 424q86 37 203 37h266v377q0 102 117 145l66 8h51l6 -8v-1784l-6 -8h-43q-92 0 -152 53h-8q-92 -53 -252 -53h-43q-313 0 -422 291q-22 77 -22 196zM449 465q0 -180 112 -209q59 -16 117 -16q182 0 217 112q18 37 18 148v530h-260 q-205 0 -204 -190v-375z" />
<glyph unicode="e" horiz-adv-x="1341" d="M207 426v334q0 354 252 457q82 35 170 34h100q279 0 385 -274q27 -84 27 -150v-147q0 -111 -125 -154q-25 -8 -62 -8h-508v-129q0 -63 84 -131q57 -23 134 -22h317q113 0 156 -130l4 -36v-62l-8 -8h-443q-332 0 -438 217q-45 96 -45 209zM446 756h457v71q0 139 -135 185 l-43 4h-70q-164 0 -200 -117l-9 -102v-41z" />
<glyph unicode="f" horiz-adv-x="999" d="M207 199v1110q0 352 252 456q88 35 166 35h213l8 -8v-66q0 -131 -182 -165q-147 0 -195 -97q-18 -58 -18 -116v-191h317l6 -6v-51q-18 -182 -176 -182h-147v-910l-9 -8h-69q-115 0 -160 127z" />
<glyph unicode="g" horiz-adv-x="1304" d="M203 -377q0 119 129 162l37 2h278q184 0 213 113q16 39 17 88v92h-5q-113 -41 -202 -41q-326 0 -426 235q-41 100 -41 230v319q0 299 254 400q98 29 172 28q195 0 280 -55q57 55 133 55h15q49 0 49 -12v-1292q0 -158 -119 -273q-139 -115 -289 -114h-489l-6 8v55z M434 485q0 -169 111 -202l92 -13h55q184 0 185 226v307l4 33q0 158 -162 184l-86 4q-199 0 -199 -205v-334z" />
<glyph unicode="h" d="M207 182v1610l6 8h47q139 0 182 -123l4 -39v-405q106 37 213 37h17q336 0 444 -244q27 -61 39 -170l-4 -104v-744l-8 -8h-70q-119 0 -157 143l-5 52v630q0 205 -208 205q-188 0 -218 -69q-43 -61 -43 -154l5 -4l-5 -21v-774l-8 -8h-69q-111 0 -156 127z" />
<glyph unicode="i" horiz-adv-x="647" d="M207 195v1048l6 8h49q131 0 172 -110q12 -40 12 -80v-1053l-8 -8h-35q-139 0 -182 106q-14 36 -14 89zM207 1653v143l6 8h66q123 0 163 -129l4 -35v-174l-8 -8h-22q-209 0 -209 195z" />
<glyph unicode="j" horiz-adv-x="839" d="M0 -393q0 190 227 190q102 0 152 105q14 43 14 92v1104q0 113 139 153l60 4h20l9 -8v-1270q0 -293 -291 -395q-63 -14 -111 -14h-213l-6 6v33zM389 1473v161q18 166 162 166h61l9 -8v-139q0 -133 -111 -176q-31 -10 -102 -11h-13z" />
<glyph unicode="k" d="M203 182v1610l8 8h65q121 0 164 -125l4 -35v-856l7 -8h227q157 0 203 86q35 76 34 182v64q0 125 134 168l77 6h27l8 -6v-211q0 -287 -108 -391l-21 -23q84 -76 121 -241l8 -168v-234l-8 -8h-39q-152 0 -194 133l-5 41v119q0 166 -86 211q-59 27 -133 26h-252v-518l-8 -8 h-65q-117 0 -160 125z" />
<glyph unicode="l" horiz-adv-x="1036" d="M207 434v1358l6 8h37q145 0 188 -110q12 -49 13 -125v-1123q0 -166 143 -198q166 0 209 -62q39 -57 39 -133q0 -49 -13 -49h-178q-303 0 -409 258q-35 92 -35 176z" />
<glyph unicode="m" horiz-adv-x="2035" d="M205 186v1053l8 8h68q66 0 129 -53q84 47 198 57l72 -4h70q145 0 274 -119q123 123 309 123q236 0 314 -65q188 -131 188 -373v-805l-6 -8h-31q-143 0 -182 106q-16 43 -17 89v577q0 166 -86 217q-45 20 -122 27q-166 0 -213 -62q-37 -61 -37 -147v-799l-8 -8h-46 q-150 0 -182 143l-4 56v622q0 132 -110 178l-89 17q-188 0 -219 -70q-43 -41 -43 -192v-746l-8 -8h-29q-139 0 -184 106q-14 45 -14 80z" />
<glyph unicode="n" horiz-adv-x="1441" d="M303 168v1071q0 12 82 12h6q76 0 119 -53q84 53 215 53h109q227 0 356 -202q47 -102 47 -205v-836l-6 -8h-35q-158 0 -190 137l-5 35v610q0 172 -88 209q-66 27 -168 27q-201 0 -200 -207v-803l-8 -8h-50q-184 21 -184 168z" />
<glyph unicode="o" horiz-adv-x="1333" d="M203 418v395q0 305 272 412q57 16 164 26l31 -4l26 4q254 0 381 -198q59 -98 60 -293v-299q0 -332 -273 -438q-74 -23 -133 -23h-115q-260 0 -376 244q-37 92 -37 174zM442 432q0 -197 193 -196h65q139 0 183 110q14 49 14 119v338q0 152 -98 188q-66 20 -115 21h-18 q-158 0 -201 -84q-23 -51 -23 -107v-389z" />
<glyph unicode="p" horiz-adv-x="1308" d="M205 -260v1501l8 8h20q121 0 170 -59q82 59 201 59h10q243 0 314 -61q66 -47 116 -121q47 -84 62 -213l-2 -27v-389q0 -212 -184 -332q-106 -63 -250 -63h-234v-469l-8 -6h-57q-144 0 -166 172zM436 274l164 -4h51l17 -4q139 0 188 107q20 61 21 133v321q0 195 -203 195 h-10q-184 0 -218 -111q-10 -39 -10 -98v-539z" />
<glyph unicode="q" horiz-adv-x="1296" d="M201 469v332q0 324 254 422q92 33 190 32q144 0 270 -55q49 51 121 51h60l8 -6v-1671l-8 -6h-64q-127 0 -158 131v346h-229q-310 0 -412 240q-32 96 -32 184zM432 438q0 -113 119 -153q35 -10 98 -11h225v504q0 176 -77 217q-57 29 -135 29h-23q-137 0 -180 -78 q-27 -47 -27 -133v-375z" />
<glyph unicode="r" horiz-adv-x="937" d="M205 160v1083l8 8h10q125 0 180 -61q88 57 215 57h115q12 -2 12 -22v-39q0 -154 -190 -182q-90 -45 -90 -99q-23 -14 -25 -164v-733l-8 -8h-51q-132 0 -172 129z" />
<glyph unicode="s" horiz-adv-x="1331" d="M203 8v58q0 147 178 170h303q154 0 207 114l4 31q0 59 -104 121q-94 23 -232 22q-139 27 -223 103q-123 119 -123 266q0 182 217 311q92 43 178 43h518l7 -8v-72q0 -104 -121 -147l-66 -8h-330q-111 0 -172 -107l-2 -18q0 -68 117 -119q0 -10 209 -14q100 -12 229 -101 q135 -141 136 -280q0 -195 -236 -334q-94 -39 -170 -39h-516z" />
<glyph unicode="t" horiz-adv-x="1021" d="M199 418l4 96v1278l8 8h41q139 0 182 -114l8 -60v-356h158q182 -23 182 -174v-58l-8 -8h-332v-581q0 -139 97 -191q61 -23 151 -22q72 -23 105 -76q27 -47 26 -103v-49l-8 -8h-154q-315 0 -426 258q-22 60 -34 160z" />
<glyph unicode="u" horiz-adv-x="1341" d="M207 434v809l6 8h74q109 0 151 -123q8 -25 8 -49v-641q0 -203 205 -202h4q248 0 248 180v827l8 8h66q143 0 164 -168v-1075l-8 -8h-41q-96 0 -150 61q-92 -61 -248 -61h-22q-344 0 -439 270q-26 80 -26 164z" />
<glyph unicode="v" horiz-adv-x="1382" d="M203 1253h92q184 0 248 -292l141 -445h4q193 594 207 617q72 121 205 120h74l8 -8l-404 -1245h-28q-184 0 -232 250q-211 647 -315 1003z" />
<glyph unicode="w" horiz-adv-x="2027" d="M201 418l4 151v670l8 8h63q133 0 164 -137l4 -45v-651q0 -143 156 -174l45 -4h39q217 0 217 204v688l6 9h66q117 0 160 -129l4 -35v-498q0 -174 84 -209q55 -31 133 -30h8q233 0 233 200v643q0 172 234 172l4 -4v-790q0 -375 -350 -449l-92 -8h-68q-176 0 -303 125 q-145 -125 -305 -125h-41q-330 0 -438 252q-23 80 -35 166z" />
<glyph unicode="x" horiz-adv-x="1331" d="M201 168v188q0 150 123 279q-123 119 -123 311v293l8 8h59q123 0 172 -133v-160q0 -145 103 -186l80 -14q170 0 202 32q72 55 72 177v280l6 8h25q145 0 186 -92q18 -41 19 -72v-155q0 -168 -121 -297q121 -133 121 -279v-348l-9 -8h-49q-121 0 -164 98q-14 31 -14 66v129 q0 166 -106 205q-55 23 -129 22q-154 0 -199 -90q-23 -57 -23 -94v-328l-8 -8h-59q-114 0 -160 111q-12 30 -12 57z" />
<glyph unicode="y" horiz-adv-x="1296" d="M203 -213l6 8h463q203 0 202 178v109h-4q-104 -39 -194 -39h-41q-317 0 -416 285q-16 66 -16 125v788l6 6h65q131 0 156 -157v-562q0 -203 107 -241q45 -14 75 -15h27q197 0 231 136l4 28v809l7 6h22q137 0 180 -88q23 -41 23 -116v-1020q0 -262 -133 -361 q-123 -98 -260 -98h-353q-115 0 -153 131l-4 33v55z" />
<glyph unicode="z" horiz-adv-x="1333" d="M203 170v25l626 817h-421q-152 0 -195 110q-10 20 -10 60v57l8 8h752q131 0 170 -137l4 -35q0 -113 -619 -839h428q137 0 180 -117q6 -18 7 -51v-60l-7 -8h-753q-170 18 -170 170z" />
<glyph unicode="{" horiz-adv-x="1157" d="M201 780v242q0 10 88 16l4 4v324q0 266 254 389q98 45 260 45h149l5 -4h4q0 -184 -144 -246q-141 -20 -198 -69q-68 -72 -68 -197v-217q0 -88 -29 -170q29 -57 29 -168v-213q0 -182 141 -237q143 -25 176 -54q92 -74 93 -221l-4 -4h-60q-348 0 -442 100 q-166 123 -166 346v318l-37 6h-47z" />
<glyph unicode="|" horiz-adv-x="1107" d="M205 176v1620l8 8h66q114 0 159 -129l8 -53v-1614l-8 -8h-35q-135 0 -182 102q-16 43 -16 74z" />
<glyph unicode="}" horiz-adv-x="1161" d="M205 0v4q0 195 145 250q104 12 172 49q92 57 92 268v129l-6 37q0 88 35 164q-23 27 -35 162l6 29v139q0 215 -96 270q-43 27 -176 49q-70 27 -117 113q-20 68 -20 137h164q358 0 475 -270q29 -82 28 -141v-347l93 -16v-246l-11 -10h-45q-31 0 -37 -14v-353 q0 -131 -116 -266q-119 -137 -459 -137h-92z" />
<glyph unicode="~" horiz-adv-x="1107" d="M111 506v233q63 74 125 101q59 27 120 26q66 0 205 -49t189 -49q51 0 102 27q57 31 145 133v-234q-61 -70 -125 -98q-59 -27 -122 -27q-61 0 -199 49q-133 47 -195 48q-49 0 -100 -27q-57 -31 -145 -133z" />
<glyph unicode="&#xa2;" horiz-adv-x="1138" />
<glyph unicode="&#xa3;" horiz-adv-x="1107" d="M80 664v79h133q-57 143 -57 242q0 221 133 350q129 129 350 129q88 0 203 -16q133 -18 133 -41v-193h-70q-2 49 -82 103q-76 51 -184 51h-6q-109 0 -172 -92q-57 -82 -58 -229v-41q0 -139 50 -263h364v-79h-332q51 -96 52 -193q0 -170 -148 -360h393q94 0 156 133h90 l-110 -254h-801l2 53q176 225 176 424q0 104 -47 197h-168z" />
<glyph unicode="&#xa5;" horiz-adv-x="1107" d="M-41 1366v68h528v-68h-51q-51 0 -51 -37q0 -45 55 -137l176 -381l172 389q45 76 46 123q0 43 -52 43h-49v68h416v-68h-37q-76 0 -164 -154l-192 -401h172v-82h-211l-19 -39v-59h230v-80h-230v-260q0 -221 99 -221h80v-70h-648v70h80q98 0 99 221v260h-228v80h228v61 l-19 37h-209v82h168l-207 410q-86 145 -131 145h-51z" />
<glyph unicode="&#xa9;" horiz-adv-x="1673" d="M94 719q0 141 53 276q55 137 152 238q98 104 244 168q141 61 297 61q152 0 290 -61q141 -63 244 -168q100 -102 152 -238q53 -137 53 -276q0 -141 -53 -277q-53 -133 -156 -239q-102 -109 -243.5 -168.5t-293 -59.5t-288.5 60q-135 59 -244 170q-98 98 -154 237 q-53 136 -53 277zM166 719q0 -143 55 -266q57 -129 154 -220q100 -94 215 -139q119 -47 244 -47q129 0 247 47q113 45 215 137q102 98 156 222q55 125 55 266q0 138 -55 264q-57 129 -152 221q-96 94 -215 139q-123 47 -245 48q-129 0 -252 -48q-117 -45 -228 -149 q-82 -78 -139 -211q-55 -127 -55 -264zM356 719q0 114 62 227q59 111 190 182q127 70 271 70q59 0 110 -14q43 -12 62 -13q16 0 16 27h63l76 -207h-63q-106 98 -156 119q-55 25 -125 25q-76 -6 -178 -103q-104 -98 -104 -299q0 -168 92 -299q92 -133 219 -133q113 0 188 43 q68 39 72 121h68v-103q0 -37 -80 -79q-74 -39 -248 -43q-160 0 -285 69q-127 72 -188.5 182.5t-61.5 227.5z" />
<glyph unicode="&#xad;" horiz-adv-x="1382" d="M203 825v58l8 8h786q147 0 185 -154v-88l-8 -8h-773q-147 0 -190 125z" />
<glyph unicode="&#xae;" horiz-adv-x="1673" d="M94 719q0 141 53 276q55 137 152 238q98 104 244 168q141 61 297 61q152 0 290 -61q141 -63 244 -168q100 -102 152 -238q53 -137 53 -276q0 -141 -53 -277q-53 -133 -156 -239q-102 -109 -243.5 -168.5t-293 -59.5t-288.5 60q-135 59 -244 170q-98 98 -154 237 q-53 136 -53 277zM166 719q0 -143 55 -266q57 -129 154 -220q100 -94 215 -139q119 -47 244 -47q129 0 247 47q113 45 215 137q102 98 156 222q55 125 55 266q0 138 -55 264q-57 129 -152 221q-96 94 -215 139q-123 47 -245 48q-129 0 -252 -48q-117 -45 -228 -149 q-82 -78 -139 -211q-55 -127 -55 -264zM442 272v62h21q53 0 53 125v520v127h-53v59h368q84 0 160 -53q66 -43 96.5 -110.5t30.5 -141.5q0 -68 -31 -135q-31 -70 -110 -152l63 -100q94 -139 168 -139h23v-62h-367v62h21q12 0 12 12q0 33 -66 125l-34 59q-31 0 -60 17v-88 q0 -125 54 -125h20v-62h-369zM737 713q0 -66 25 -86q20 -18 49 -19h2q25 0 43 31q16 29 37 100q12 55 12 111q0 4 -1 15.5t-1 17.5q-2 72 -29 135q-25 61 -47 74q-25 14 -45 14h-45v-393z" />
<glyph unicode="&#xb4;" horiz-adv-x="1024" d="M221 1077l260 289q35 35 68 53q29 16 67.5 16.5t57.5 -22.5q18 -20 18 -51q0 -45 -20 -66q-16 -16 -56 -41l-309 -178h-86z" />
<glyph unicode="&#x2000;" horiz-adv-x="921" />
<glyph unicode="&#x2001;" horiz-adv-x="1843" />
<glyph unicode="&#x2002;" horiz-adv-x="921" />
<glyph unicode="&#x2003;" horiz-adv-x="1843" />
<glyph unicode="&#x2004;" horiz-adv-x="612" />
<glyph unicode="&#x2005;" horiz-adv-x="460" />
<glyph unicode="&#x2006;" horiz-adv-x="305" />
<glyph unicode="&#x2007;" horiz-adv-x="305" />
<glyph unicode="&#x2008;" horiz-adv-x="229" />
<glyph unicode="&#x2009;" horiz-adv-x="366" />
<glyph unicode="&#x200a;" horiz-adv-x="100" />
<glyph unicode="&#x2010;" horiz-adv-x="1382" d="M203 825v58l8 8h786q147 0 185 -154v-88l-8 -8h-773q-147 0 -190 125z" />
<glyph unicode="&#x2011;" horiz-adv-x="1382" d="M203 825v58l8 8h786q147 0 185 -154v-88l-8 -8h-773q-147 0 -190 125z" />
<glyph unicode="&#x2012;" horiz-adv-x="1382" d="M203 825v58l8 8h786q147 0 185 -154v-88l-8 -8h-773q-147 0 -190 125z" />
<glyph unicode="&#x2013;" horiz-adv-x="1107" d="M55 399v160h998v-160h-998z" />
<glyph unicode="&#x2014;" horiz-adv-x="2048" d="M0 399v160h2048v-160h-2048z" />
<glyph unicode="&#x2018;" horiz-adv-x="624" d="M229 1233q0 109 74 231.5t184 122.5v-55q-70 -41 -86 -189q0 -113 129 -155v-47l-129 -135q-74 0 -122 71q-50 70 -50 156z" />
<glyph unicode="&#x2019;" horiz-adv-x="624" d="M94 1407v45l129 135q74 0 123 -71q49 -70 49 -156q0 -109 -73.5 -231.5t-184.5 -122.5v55q70 41 86 188q0 115 -129 158z" />
<glyph unicode="&#x201c;" horiz-adv-x="983" d="M229 1233q0 109 74 231.5t184 122.5v-55q-70 -41 -86 -189q0 -113 129 -155v-47l-129 -135q-74 0 -122 71q-50 70 -50 156zM590 1233q0 109 73.5 231.5t184.5 122.5v-55q-70 -41 -86 -189q0 -113 129 -155v-47l-129 -135q-74 0 -123 71q-49 70 -49 156z" />
<glyph unicode="&#x201d;" horiz-adv-x="983" d="M94 1407v45l129 135q74 0 123 -71q49 -70 49 -156q0 -109 -73.5 -231.5t-184.5 -122.5v55q70 41 86 188q0 115 -129 158zM455 1407v45l129 135q74 0 123 -71q49 -70 49 -156q0 -109 -74 -231.5t-184 -122.5v55q70 41 86 188q0 115 -129 158z" />
<glyph unicode="&#x2022;" horiz-adv-x="1107" d="M219 719q0 125 94 229q92 102 242 102.5t240 -102.5q94 -106 94 -229q0 -129 -94 -232q-94 -104 -241.5 -104t-240.5 104q-94 107 -94 232z" />
<glyph unicode="&#x2026;" horiz-adv-x="2048" d="M256 143q0 14 18 33l95 90q16 14 34 15q14 0 33 -17l94 -92q12 -18 13 -31q0 -10 -17 -30l-90 -95q-23 -20 -33 -20q-20 0 -34 14l-101 107q-12 14 -12 26zM938 143q0 14 18 33l95 90q16 14 34 15q14 0 33 -17l94 -92q12 -18 13 -31q0 -10 -17 -30l-90 -95 q-23 -20 -33 -20q-20 0 -34 14l-101 107q-12 14 -12 26zM1622 143q0 14 18 33l95 90q16 14 34 15q14 0 33 -17l94 -92q12 -18 13 -31q0 -10 -17 -30l-90 -95q-23 -20 -33 -20q-20 0 -34 14l-101 107q-12 14 -12 26z" />
<glyph unicode="&#x202f;" horiz-adv-x="366" />
<glyph unicode="&#x205f;" horiz-adv-x="460" />
<glyph unicode="&#x20ac;" horiz-adv-x="1107" d="M-43 633l16 80h105q0 39 2 59h-90l16 82h84q18 108 68 215q80 176 237.5 280.5t333.5 104.5q96 0 143 -20q51 -23 58 -23q20 0 20 45h84l88 -299h-88q-55 133 -151 180q-92 45 -199 45q-147 -8 -256 -202q-78 -139 -100 -326h571l-16 -82h-561q0 -10 -1.5 -29.5 t-1.5 -29.5h547l-16 -80h-526q18 -209 131 -383q132 -209 288 -209h2q131 4 222 72q90 70 94 186h82v-147q0 -55 -96 -117q-94 -59 -302 -64q-197 0 -352 105q-160 106 -235 280q-63 141 -76 277h-125z" />
<glyph unicode="&#x2122;" horiz-adv-x="1495" />
<glyph unicode="&#xe000;" horiz-adv-x="1250" d="M0 1250h1250v-1250h-1250v1250z" />
<glyph unicode="&#xf001;" horiz-adv-x="1572" d="M207 199v1112q0 348 252 456q88 35 166 35h213l8 -8v-65q0 -131 -182 -166q-145 0 -195 -99q-18 -49 -18 -114v-191h317l8 -8v-49q-23 -184 -178 -184h-147v-910l-9 -8h-69q-115 0 -160 127zM1137 195v1048l8 8h49q129 0 170 -110q12 -40 12 -80v-1053l-8 -8h-35 q-139 0 -182 106q-14 32 -14 89zM1137 1653v143l8 8h63q123 0 164 -129l4 -35v-174l-8 -8h-22q-209 0 -209 195z" />
<glyph unicode="&#xfb01;" horiz-adv-x="1572" d="M207 199v1112q0 348 252 456q88 35 166 35h213l8 -8v-65q0 -131 -182 -166q-145 0 -195 -99q-18 -49 -18 -114v-191h317l8 -8v-49q-23 -184 -178 -184h-147v-910l-9 -8h-69q-115 0 -160 127zM1137 195v1048l8 8h49q129 0 170 -110q12 -40 12 -80v-1053l-8 -8h-35 q-139 0 -182 106q-14 32 -14 89zM1137 1653v143l8 8h63q123 0 164 -129l4 -35v-174l-8 -8h-22q-209 0 -209 195z" />
<glyph unicode="&#xf002;" horiz-adv-x="1972" d="M207 199v1110q0 352 252 456q88 35 166 35h213l8 -8v-66q0 -131 -182 -165q-147 0 -195 -97q-18 -58 -18 -116v-191h317l6 -6v-51q-18 -182 -176 -182h-147v-910l-9 -8h-69q-115 0 -160 127zM1141 434v1358l8 8h35q145 0 188 -110q12 -49 12 -125v-1123q0 -166 144 -198 q166 0 209 -62q39 -57 39 -133q0 -49 -11 -49h-180q-303 0 -409 258q-35 92 -35 176z" />
<glyph unicode="&#xfb02;" horiz-adv-x="1972" d="M207 199v1110q0 352 252 456q88 35 166 35h213l8 -8v-66q0 -131 -182 -165q-147 0 -195 -97q-18 -58 -18 -116v-191h317l6 -6v-51q-18 -182 -176 -182h-147v-910l-9 -8h-69q-115 0 -160 127zM1141 434v1358l8 8h35q145 0 188 -110q12 -49 12 -125v-1123q0 -166 144 -198 q166 0 209 -62q39 -57 39 -133q0 -49 -11 -49h-180q-303 0 -409 258q-35 92 -35 176z" />
<glyph unicode="&#xfb03;" horiz-adv-x="2650" d="M2210 195v1048l6 8h49q131 0 172 -110q12 -40 12 -80v-1053l-8 -8h-35q-139 0 -182 106q-14 36 -14 89zM2210 1653v143l6 8h66q123 0 163 -129l4 -35v-174l-8 -8h-22q-209 0 -209 195zM1208 199v1110q0 352 252 456q88 35 166 35h213l8 -8v-66q0 -131 -182 -165 q-147 0 -195 -97q-18 -58 -18 -116v-191h317l6 -6v-51q-18 -182 -176 -182h-147v-910l-9 -8h-69q-115 0 -160 127zM207 199v1110q0 352 252 456q88 35 166 35h213l8 -8v-66q0 -131 -182 -165q-147 0 -195 -97q-18 -58 -18 -116v-191h317l6 -6v-51q-18 -182 -176 -182h-147 v-910l-9 -8h-69q-115 0 -160 127z" />
<glyph unicode="&#xfb04;" horiz-adv-x="3039" d="M2210 434v1358l6 8h37q145 0 188 -110q12 -49 13 -125v-1123q0 -166 143 -198q166 0 209 -62q39 -57 39 -133q0 -49 -13 -49h-178q-303 0 -409 258q-35 92 -35 176zM1208 199v1110q0 352 252 456q88 35 166 35h213l8 -8v-66q0 -131 -182 -165q-147 0 -195 -97 q-18 -58 -18 -116v-191h317l6 -6v-51q-18 -182 -176 -182h-147v-910l-9 -8h-69q-115 0 -160 127zM207 199v1110q0 352 252 456q88 35 166 35h213l8 -8v-66q0 -131 -182 -165q-147 0 -195 -97q-18 -58 -18 -116v-191h317l6 -6v-51q-18 -182 -176 -182h-147v-910l-9 -8h-69 q-115 0 -160 127z" />
</font>
</defs>
</svg>
