<?xml version="1.0" standalone="no"?>
<!DOCTYPE svg PUBLIC "-//W3C//DTD SVG 1.1//EN" "http://www.w3.org/Graphics/SVG/1.1/DTD/svg11.dtd" >
<svg xmlns="http://www.w3.org/2000/svg">
<metadata>
This is a custom SVG webfont generated by Font Squirrel.
Copyright   : Typeface  your company 2008 All Rights Reserved
Designer    : Dhany Arliyanti
</metadata>
<defs>
<font id="webfont4o7z1h1i" horiz-adv-x="1165" >
<font-face units-per-em="2048" ascent="1638" descent="-410" />
<missing-glyph horiz-adv-x="507" />
<glyph unicode=" "  horiz-adv-x="507" />
<glyph unicode="&#x09;" horiz-adv-x="507" />
<glyph unicode="&#xa0;" horiz-adv-x="507" />
<glyph unicode="!" horiz-adv-x="755" d="M102 135v21q27 180 41 180h27q113 0 147 -68q23 -39 23 -80q-35 -188 -45 -188h-45q-98 0 -135 86q-13 24 -13 49zM207 627v10q0 35 242 1155l4 4h61q92 0 127 -98q6 -18 6 -47q-29 -172 -246 -1166h-55q-139 15 -139 142z" />
<glyph unicode="&#x22;" horiz-adv-x="901" d="M98 1292v8q0 33 105 500h63q154 -16 154 -151q0 -39 -105 -508l-4 -4h-49q-106 0 -151 88q-13 36 -13 67zM475 1274v31q0 39 105 495h67q111 0 144 -114l4 -41q-102 -508 -109 -508h-31q-123 0 -163 80q-17 39 -17 57z" />
<glyph unicode="#" horiz-adv-x="1972" d="M98 643v25q10 84 21 84h436q6 0 84 188h-268q-123 0 -176 109l-5 43v8q10 80 21 80h524q8 0 119 272q96 227 109 240h24q147 0 148 -131q0 -70 -101 -285l-39 -92l4 -4h215q10 0 97 217l133 295h22q104 0 142 -76l8 -51q0 -78 -121 -332l-16 -49v-4h209q119 0 172 -109 l8 -39q-12 -92 -25 -92h-473l-76 -188h256q188 0 222 -119l4 -33q-9 -92 -25 -92h-563q-209 -508 -221 -508h-47q-121 16 -121 121v22q0 57 125 332l12 33h-229q-197 -481 -220 -508h-49q-109 0 -123 131q0 68 140 377h-160q-169 0 -197 135zM815 752h219q14 14 84 188h-227 z" />
<glyph unicode="$" horiz-adv-x="1378" d="M98 -2q29 207 191 207h225q221 0 291 186q49 178 49 238q0 158 -201 182q-227 0 -293 158q-20 43 -20 118q0 194 154 363q111 90 225 115q25 0 24 47q41 184 48 188h45q90 0 127 -82l8 -41v-10l-15 -92h316l4 -4h2q-25 -137 -72 -168q-57 -41 -106 -41h-279 q-186 0 -256 -203q-8 -20 -8 -45v-22q0 -68 90 -68h37q307 0 375 -303l8 -88q0 -100 -70 -334q-27 -82 -123 -184q-86 -86 -233 -117q-25 0 -25 -14q-45 -215 -55 -226h-26q-109 0 -142 78q-8 16 -8 45v10l16 101h-295z" />
<glyph unicode="%" horiz-adv-x="1312" d="M98 174q0 78 125 246l869 1364h4q121 -68 121 -160q0 -78 -132 -258l-729 -1143q-109 -176 -137 -213h-4q-117 60 -117 164zM362 1370v31q74 393 89 393h4q215 0 256 -156l4 -24v-12q0 -59 -82 -408q-186 0 -254 117q-17 28 -17 59zM604 184v4q0 45 84 412h8 q205 0 260 -143l5 -54q0 -39 -84 -403h-23q-182 0 -242 135q-8 16 -8 49z" />
<glyph unicode="&#x26;" horiz-adv-x="1454" d="M102 358q0 84 95 461l47 58q-16 55 -17 81q90 512 150 578q168 260 463 260h510l8 -6q-31 -236 -209 -236h-275q-225 0 -307 -186q-31 -61 -86 -358q6 -20 39 -21h129l43 189l4 -4h37q119 0 162 -109l2 -43q-92 -496 -109 -496h-34q-111 0 -156 95q-12 25 -12 61l12 66 h-109q-86 0 -86 -109q-43 -164 -43 -229v-9q0 -164 211 -163h449l6 -9q-33 -229 -207 -229h-346q-248 0 -344 211q-19 41 -27 147z" />
<glyph unicode="'" horiz-adv-x="526" d="M102 1284v16q0 39 105 500h63q111 0 150 -106l4 -54q0 -33 -109 -503h-32q-135 0 -172 96z" />
<glyph unicode="(" horiz-adv-x="1128" d="M102 365q0 86 142 718q70 401 151 516q154 244 457 244h174l4 -4h4q-12 -96 -39 -143q-82 -104 -200 -105q-145 -49 -203 -147q-37 -43 -125 -512q-109 -477 -109 -533q0 -133 201 -163q104 -52 105 -148q-12 -88 -25 -88h-184q-244 0 -328 213q-15 43 -25 152z" />
<glyph unicode=")" horiz-adv-x="1124" d="M96 8q0 125 105 205q51 25 176 51q137 63 178 172q29 61 162 727q51 213 51 256v25q0 104 -129 147q-170 25 -170 164v4q10 84 23 84h159q266 0 348 -203q25 -80 25 -159v-4q0 -98 -109 -574q-92 -489 -147 -600q-166 -303 -444 -303h-220z" />
<glyph unicode="*" horiz-adv-x="1161" d="M98 1311v37q8 80 21 79h205v5q-45 61 -45 131q0 92 120 176h4l111 -144h8q35 203 49 203h56q98 0 137 -110l4 -62v-14q152 127 164 127q68 -80 67 -123v-21q0 -74 -88 -168q156 -33 156 -151q-12 -88 -25 -88h-202q43 -66 43 -121v-12q0 -100 -119 -181l-121 150 q-41 -209 -47 -209h-45q-104 0 -143 92l-13 84l4 13h-4l-155 -130q-76 70 -76 150q0 70 92 168q-113 0 -158 119z" />
<glyph unicode="+" horiz-adv-x="1169" d="M98 788v5q8 88 21 88h360q12 0 68 303q15 68 24 67h56q96 0 133 -102l8 -66q0 -34 -37 -202h164q172 -25 172 -154q-12 -88 -25 -88h-362l-82 -371h-47q-98 0 -135 80q-20 41 -20.5 84t38.5 207h-151q-131 0 -177 104q-8 14 -8 45z" />
<glyph unicode="," horiz-adv-x="475" d="M0 -127q0 46 80 61q39 45 72 228q29 33 63 33q125 0 162 -109v-37q0 -117 -113 -211q-84 -45 -180 -45q-84 6 -84 57v23z" />
<glyph unicode="-" d="M104 801q12 96 25 96h784q104 0 148 -104q8 -16 8 -56q-8 -88 -25 -88h-759q-133 0 -172 101z" />
<glyph unicode="." horiz-adv-x="468" d="M102 63v5q22 147 37 147q20 37 84 37h56q96 0 96 -76q-23 -176 -92 -176h-109q-72 12 -72 63z" />
<glyph unicode="/" horiz-adv-x="1296" d="M98 152v20q0 68 125 240q807 1274 848 1329q123 -61 123 -172q0 -63 -131 -252l-836 -1317q-129 56 -129 152z" />
<glyph unicode="0" horiz-adv-x="1359" d="M102 338v18q0 72 103 518q104 539 149 637q158 289 490 289h41q307 0 377 -252l8 -80v-12q0 -88 -103 -534q-102 -500 -131 -588q-51 -117 -139 -203q-152 -131 -313 -131h-148q-215 0 -313 213q-21 78 -21 125zM350 369q0 -129 129 -129h105q227 0 270 372 q170 760 170 830q0 119 -180 119q-203 -4 -264 -131q-35 -70 -121 -517q-109 -481 -109 -540v-4z" />
<glyph unicode="1" horiz-adv-x="768" d="M100 1694v18q8 84 19 84h196q227 0 332 -215q16 -55 17 -104v-35q0 -88 -158 -799q-133 -633 -139 -643h-9q-158 0 -192 104l-8 46l262 1265v39q0 88 -123 100q-160 0 -188 97q-9 14 -9 43z" />
<glyph unicode="2" horiz-adv-x="1419" d="M98 139v8q0 95 191 271q508 498 606 645q178 236 178 367q0 127 -160 126h-344q-117 0 -139 138v10q9 92 25 92h479q268 0 354 -205q25 -63 25 -114v-31q0 -223 -240 -531q-104 -154 -514 -571l-113 -100l9 -8h428q147 -23 147 -144v-4q-6 -88 -22 -88h-770 q-117 0 -140 139z" />
<glyph unicode="3" horiz-adv-x="1419" d="M102 135v21q8 84 21 84h500q156 0 235 174q20 63 74 338l-23 8h-190q-152 23 -152 135v23q6 78 21 81h323q90 10 90 70q70 326 70 348q0 143 -178 144h-309q-152 16 -152 143q8 96 23 96h481q270 0 356 -205q23 -63 23 -118v-27q0 -104 -101 -512l-51 -74q20 -29 21 -69 v-4q-74 -442 -144 -539q-160 -252 -448 -252h-338q-152 18 -152 135z" />
<glyph unicode="4" horiz-adv-x="1296" d="M154 1135q0 57 122 622q8 39 17 39h61q109 0 140 -119v-43l-97 -477v-6q0 -131 174 -131h260l166 780h52q100 0 139 -76q14 -27 14 -61v-29q-29 -162 -344 -1630l-4 -4h-61q-139 23 -140 139v29l123 610h-192q-313 0 -396 191q-34 76 -34 166z" />
<glyph unicode="5" horiz-adv-x="1521" d="M102 8q18 115 56 158q77 74 166 74h309q217 0 278 231l31 182q0 100 -143 119h-305q-154 0 -183 94l-12 58q131 662 164 757q63 115 213 115h749l5 -4h2q-33 -238 -224 -238h-532l-113 -540h275q227 0 319 -199q29 -104 29 -158q0 -129 -90 -370q-170 -287 -475 -287 h-510z" />
<glyph unicode="6" horiz-adv-x="1454" d="M102 360q0 80 174 865q43 238 89 319q166 256 464 256h512l9 -8q-14 -98 -52 -158q-70 -74 -143 -73h-313q-182 0 -240 -97q-45 -35 -100 -342l-21 -98h244q262 0 348 -211q29 -76 29 -143q0 -113 -78 -353q-154 -317 -508 -317h-49q-266 0 -350 244zM346 365 q0 -125 148 -125h51q215 0 276 217q33 154 33 178v20q0 94 -94 119l-41 4h-293q-80 -362 -80 -395v-18z" />
<glyph unicode="7" horiz-adv-x="1441" d="M4 0v4l1032 1550v2h-495q-131 27 -131 156v4q4 80 16 80h750q162 -14 161 -141v-17q0 -71 -147 -282l-707 -1047q-115 -176 -178 -235q-86 -74 -188 -74h-113z" />
<glyph unicode="8" horiz-adv-x="1359" d="M100 362q18 256 127 433q35 51 105 114q-66 100 -66 232q6 162 88 370q39 68 113 152q160 133 328 133h53q319 0 393 -215q25 -61 25 -139q0 -109 -82 -371q-31 -72 -140 -172l-12 -12v-4q68 -94 68 -219q0 -78 -64 -322q-66 -186 -258 -289q-127 -53 -258 -53h-43 q-258 0 -338 176q-39 90 -39 186zM346 375q0 -139 191 -139q209 0 284 223q35 150 35 170v22q0 127 -197 127h-8q-221 0 -266 -211q-39 -167 -39 -192zM512 1149q0 -131 160 -131h53q182 0 262 219q35 150 35 182v4q0 135 -197 136h-14q-201 0 -256 -193q-43 -178 -43 -217z " />
<glyph unicode="9" horiz-adv-x="1447" d="M102 4q37 236 205 236h352q197 0 252 235l62 299h-174q-293 0 -373 127q-72 84 -72 229v17q0 88 70 321q147 332 539 332q268 0 360 -205q27 -68 27 -157q0 -84 -109 -559q-102 -532 -147 -617q-86 -164 -303 -239q-78 -23 -152 -23h-528l-5 4h-4zM598 1157 q0 -137 162 -137h268l82 401q0 135 -129 135h-88q-190 0 -256 -200q-39 -162 -39 -199z" />
<glyph unicode=":" horiz-adv-x="563" d="M98 352v25q31 188 45 188h52q160 -16 159 -159q-37 -205 -47 -205h-37q-127 0 -168 104zM211 893v4q25 166 45 201h63q102 0 144 -113l4 -51q-33 -197 -47 -197h-74q-61 0 -110 68q-25 37 -25 88z" />
<glyph unicode=";" horiz-adv-x="555" d="M0 -127q0 46 80 61q39 45 72 228q29 33 63 33q125 0 162 -109v-37q0 -117 -113 -211q-84 -45 -180 -45q-84 6 -84 57v23zM223 903q34 197 49 197h47q125 0 156 -117l4 -37v-10q-31 -201 -43 -201h-37q-176 0 -176 168z" />
<glyph unicode="&#x37e;" horiz-adv-x="555" d="M0 -127q0 46 80 61q39 45 72 228q29 33 63 33q125 0 162 -109v-37q0 -117 -113 -211q-84 -45 -180 -45q-84 6 -84 57v23zM223 903q34 197 49 197h47q125 0 156 -117l4 -37v-10q-31 -201 -43 -201h-37q-176 0 -176 168z" />
<glyph unicode="&#x3c;" horiz-adv-x="966" d="M102 608q41 207 52 223l596 578q109 -68 108 -141v-35q0 -74 -160 -213l-323 -328q254 -428 260 -465v-39q0 -111 -166 -188z" />
<glyph unicode="=" horiz-adv-x="1249" d="M102 545q12 88 25 88h743q170 0 201 -141v-17q-12 -88 -24 -88h-701q-244 0 -244 158zM182 899v12q6 80 21 84h747q154 0 193 -114l4 -37q-8 -88 -21 -88h-772q-172 22 -172 143z" />
<glyph unicode="&#x3e;" horiz-adv-x="966" d="M102 152q0 102 152 225l332 340q-256 438 -256 459l-4 36q0 113 163 197q313 -506 369 -612q-41 -229 -55 -230l-590 -567h-2q-109 66 -109 152z" />
<glyph unicode="?" horiz-adv-x="1040" d="M98 147q31 184 45 185h60q133 -23 133 -133v-23q-31 -176 -41 -176h-59q-120 0 -138 147zM106 1671v49q8 80 19 80h448q287 0 359 -246q10 -47 10 -96q0 -121 -74 -348q-43 -86 -116 -168q-117 -111 -285 -143l-84 -379h-37q-121 0 -156 119l-4 36q68 416 119 416 q41 47 160 47q115 37 178 144q59 125 59 219v2q0 115 -84 151q-46 18 -147 19h-235q-93 0 -130 98z" />
<glyph unicode="@" horiz-adv-x="1949" d="M102 125v47q193 940 230 1057q160 362 499 362h789q166 0 231 -176l9 -80q0 -53 -150 -739q-88 -434 -111 -487q-72 -109 -192 -109h-184q-72 0 -119 55h-4q-104 -55 -256 -55h-428v4q160 795 190 873q77 151 209 215q117 59 227 59h474v-2l-185 -885q22 -12 68 -12 l221 1036q0 55 -82 55h-659q-236 0 -312 -172l-252 -1163h-59q-113 0 -154 117zM702 231h146q254 0 299 248l92 441h-180q-193 0 -256 -195l-101 -489v-5z" />
<glyph unicode="A" horiz-adv-x="1425" d="M102 152q31 178 349 1644l4 4h514q274 0 342 -241q12 -55 12 -117q0 -55 -164 -813l-135 -629h-29q-120 0 -159 74q-20 33 -21 78v12q0 28 98 479h-467q-129 -639 -137 -639h-57q-150 17 -150 148zM502 885h459q8 0 69 315q47 195 47 242v4q-12 109 -108 108l-29 5h-291 q-8 0 -51 -201z" />
<glyph unicode="B" horiz-adv-x="1454" d="M98 4l383 1792l4 4h490q261 0 356 -209q23 -78 23 -110v-56q-74 -395 -101 -395q-33 -68 -125 -131v-4q70 -76 70 -190q0 -53 -76 -363q-80 -188 -260 -289q-109 -53 -231 -53h-525l-4 4h-4zM401 240h244q175 0 252 172l45 243q0 115 -180 115h-252zM563 1012h203 q231 12 291 141q53 252 53 289v10q0 109 -174 109h-256z" />
<glyph unicode="C" horiz-adv-x="1411" d="M98 309v43q0 57 158 797q61 336 133 424q147 227 467 227h283q137 0 174 -110v-43q-10 -86 -21 -86h-475q-186 0 -250 -146q-31 -70 -225 -1040v-8q0 -123 135 -123h334q125 0 162 -88l8 -47v-21q-8 -84 -20 -84h-398l-133 -4q-139 0 -268 131q-64 104 -64 178z" />
<glyph unicode="D" horiz-adv-x="1454" d="M102 8q373 1765 383 1788l117 4h352q295 0 373 -201q27 -61 27 -149q0 -66 -152 -762q-59 -336 -131 -452q-166 -236 -448 -236h-512zM401 240h244q215 0 270 256q186 862 187 913v37q0 115 -166 115h-240q-20 0 -20 -23q-275 -1261 -275 -1298z" />
<glyph unicode="E" horiz-adv-x="1415" d="M98 348q0 90 191 938q27 172 94 275q95 154 289 221q70 18 194 18h244q205 0 205 -153q-8 -86 -23 -86h-473q-205 0 -266 -191l-78 -346h391q121 0 158 -90l12 -66q-8 -86 -22 -86h-590q-82 -381 -82 -417q0 -125 164 -125h303q129 0 166 -97l6 -51q-10 -92 -23 -92h-499 q-209 0 -318 168q-43 80 -43 180z" />
<glyph unicode="F" horiz-adv-x="1499" d="M102 147v13q25 152 273 1286q61 156 162 231q141 123 337 123h519l8 -8q-33 -231 -209 -231h-250q-213 0 -266 -66q-61 -61 -78 -139l-100 -473h589v-4q0 -92 -69 -183q-61 -53 -148 -53h-417q-10 0 -52 -225l-94 -418h-57q-148 15 -148 147z" />
<glyph unicode="G" horiz-adv-x="1443" d="M98 348q0 86 148 742q66 360 131 464q162 242 461 242h497l8 -6q-31 -233 -213 -234h-292q-215 0 -275 -157q-37 -104 -217 -998l-4 -30q0 -135 178 -135q231 0 293 200l43 205h-113q-125 0 -161 92l-9 47v29q8 72 21 72h344q176 0 176 -154q0 -37 -149 -723l-4 -4h-58 q-76 0 -121 53q-109 -53 -227 -53h-86q-246 0 -332 174q-39 72 -39 174z" />
<glyph unicode="H" horiz-adv-x="1462" d="M102 113v47q14 104 344 1636l5 4h38q119 0 158 -100q8 -14 8 -41v-25l-96 -477h461l135 643h39q125 0 168 -110l4 -43l-346 -1643l-4 -4h-49q-127 0 -160 127v20l160 771h-461l-195 -914l-4 -4h-53q-105 0 -152 113z" />
<glyph unicode="I" horiz-adv-x="751" d="M100 147v5q0 51 349 1650h26q135 0 174 -104l8 -47q-18 -113 -348 -1651h-57q-152 22 -152 147z" />
<glyph unicode="J" horiz-adv-x="1499" d="M98 8q20 119 60 160q63 72 182 72h317q225 0 271 321l209 1000h-166q-123 0 -144 147v12q6 80 21 80l409 -4h39q113 -10 113 -92v-10q0 -31 -276 -1307q-35 -133 -158 -256q-150 -131 -348 -131h-521z" />
<glyph unicode="K" horiz-adv-x="1462" d="M102 168l338 1610q6 23 13 22h32q127 0 160 -88q9 -15 12 -61l-102 -494h203q246 0 317 252q80 391 88 391h35q126 0 160 -104l8 -49q-63 -377 -131 -482q-29 -45 -94 -114q51 -74 51 -164v-47q0 -41 -174 -836l-4 -4h-64q-139 18 -139 139l-2 13l141 696q0 57 -80 70 h-368q-154 -739 -195 -906h-49q-127 0 -152 123z" />
<glyph unicode="L" horiz-adv-x="1081" d="M102 352q0 76 119 615l178 829h39q133 0 166 -106l4 -48l-260 -1249v-45q0 -109 133 -108h328q174 0 174 -152q-8 -88 -22 -88h-496q-256 0 -340 209q-23 67 -23 143z" />
<glyph unicode="M" horiz-adv-x="2123" d="M98 147q12 89 351 1653h10q121 0 168 -53q115 53 309 53q201 0 305 -123q154 123 326 123h82q270 0 356 -213q18 -72 18 -123q0 -83 -165 -829q-117 -563 -136 -635h-30q-131 0 -168 100q-6 15 -6 43v13l254 1235l4 47v12q0 106 -144 106l-47 5h-18q-195 0 -260 -197 l-293 -1364h-43q-162 18 -162 139v17l262 1269v21q0 115 -194 115q-203 0 -267 -162l-303 -1399h-53q-156 18 -156 147z" />
<glyph unicode="N" horiz-adv-x="1419" d="M98 147q16 111 348 1643l70 6q70 0 121 -53q80 53 293 53q256 0 348 -174q35 -70 35 -141v-43q0 -51 -156 -768q-135 -643 -145 -670h-47q-123 0 -154 121l-4 31l262 1261v21q0 98 -100 116l-109 6q-172 0 -239 -145q-33 -68 -140 -614l-174 -797h-53q-156 22 -156 147z " />
<glyph unicode="O" horiz-adv-x="1374" d="M102 338v18q0 80 101 518q102 532 151 637q158 289 488 289h43q304 0 375 -252l8 -80v-12q0 -94 -101 -538q-102 -492 -129 -574q-33 -102 -149 -219q-154 -125 -307 -125h-148q-215 0 -313 213q-19 70 -19 125zM350 369q0 -129 127 -129h105q229 0 272 372 q170 760 170 830q0 119 -182 119q-203 -4 -264 -131q-31 -61 -119 -517q-109 -481 -109 -540v-4z" />
<glyph unicode="P" horiz-adv-x="1415" d="M102 147v11q15 108 344 1634l5 4h18q121 0 164 -57h4q94 57 217 57h57q244 0 314 -102q88 -94 88 -226v-47q0 -53 -113 -540q-80 -211 -258 -297q-113 -57 -291 -58h-223q-8 0 -57 -260l-64 -266h-61q-126 0 -144 147zM473 766l4 -4l174 4h66q184 0 252 180 q100 428 100 475v4q0 131 -143 131h-39q-217 0 -275 -161q-22 -76 -139 -629z" />
<glyph unicode="Q" horiz-adv-x="1366" d="M98 338v14q0 59 95 494q113 545 147 641q94 197 256 264q104 49 221 49h86q256 0 344 -213q20 -53 21 -129v-6q0 -92 -144 -729q-74 -391 -112 -440q-29 -70 -144 -179l-65 -47q170 0 201 -100l4 -29v-30q-8 -84 -25 -84h-145q-272 0 -363 182h-10q-252 0 -338 201 q-29 63 -29 141zM348 377q0 -111 74 -129l22 -4q37 197 48 202l77 13q90 0 131 -111v-74h5q78 43 120 199q199 928 199 971q0 117 -178 117q-217 0 -273 -142q-29 -43 -141 -616q-84 -360 -84 -426z" />
<glyph unicode="R" horiz-adv-x="1419" d="M98 147v13q10 68 346 1636l5 4h18q119 0 164 -57h2q94 57 217 57h57q244 0 316 -104q88 -94 88 -223v-48q0 -55 -113 -542q-37 -114 -141 -221l-29 -23v-4q66 -96 66 -209q0 -86 -80 -426h-35q-145 0 -170 125v35l41 239q0 127 -148 127h-278q-8 0 -57 -260l-64 -266h-61 q-126 0 -144 147zM475 770h236l34 -2q71 0 166 80q74 111 74 186q82 365 82 391v5q0 131 -143 131h-39q-217 0 -275 -162q-29 -90 -135 -629z" />
<glyph unicode="S" horiz-adv-x="1525" d="M98 0q0 82 56 168q66 72 174 72h309q209 0 264 217q49 215 49 274q0 123 -114 168q-45 16 -209 27q-256 74 -256 313q0 178 114 356q162 205 430 205h508l9 -8q-25 -129 -56 -154q-59 -78 -141 -77h-264q-205 0 -260 -62q-92 -92 -93 -235q0 -106 148 -107 q283 0 393 -248q33 -102 33 -182q0 -102 -74 -379q-96 -227 -274 -299q-111 -49 -213 -49h-533z" />
<glyph unicode="T" horiz-adv-x="1198" d="M102 1565q0 94 86 188q63 47 117 47h797l2 -4h4q-18 -117 -57 -162q-63 -70 -148 -69h-186q-10 0 -90 -402l-248 -1159l-66 -4q-147 20 -147 143q31 170 299 1418l-4 4h-281h-78z" />
<glyph unicode="U" horiz-adv-x="1415" d="M98 326v43q0 55 152 739l147 688h66q129 0 143 -149l-264 -1266v-21q0 -92 102 -116l45 -8q244 0 316 159l301 1401l4 4h35q131 0 162 -104l8 -49q-248 -1208 -283 -1305q-145 -342 -526 -342h-47q-252 0 -344 221q-17 70 -17 105z" />
<glyph unicode="V" horiz-adv-x="1286" d="M205 160v1630l8 6h74q127 0 157 -162l-4 -938v-71h4l451 1065q80 106 184 106h103l4 -4h4l-764 -1788l-4 -4h-49q-125 0 -164 127z" />
<glyph unicode="W" horiz-adv-x="2152" d="M102 350q0 59 82 432l215 1008h74q139 -23 139 -139l-266 -1284v-5q0 -123 158 -122h47q195 0 262 182l270 1259h27q129 0 166 -84l10 -59v-22l-233 -1137v-21q0 -119 161 -118h23q212 0 283 178l270 1255q41 74 111 107q51 14 127 14h20l2 -4h4l-305 -1419 q-49 -139 -145 -236q-160 -135 -359 -135h-94q-160 0 -264 127h-4q-164 -127 -336 -127h-49q-287 0 -371 205q-25 79 -25 145z" />
<glyph unicode="X" horiz-adv-x="1583" d="M98 158q106 512 156 592q45 72 158 165q-72 86 -72 195v45q0 47 145 635l4 2h62q152 -18 151 -137v-21l-104 -463v-26q0 -84 96 -113l62 -8q254 0 305 82q66 66 86 154q109 494 127 536h53q119 0 156 -102l8 -47q-104 -528 -170 -600q-27 -59 -143 -154q76 -90 75 -223 q0 -66 -149 -666l-4 -4h-62q-152 18 -151 139v23l104 473l4 22q0 96 -127 123l-77 8h-9q-238 0 -309 -157q-20 -51 -154 -627l-4 -4h-69q-100 0 -144 109z" />
<glyph unicode="Y" horiz-adv-x="1458" d="M98 147v13q6 80 21 80h483q188 0 256 186l31 135q-115 -35 -209 -35h-8q-287 0 -379 183q-35 92 -35 170q0 63 109 557l77 360h76q102 -29 103 -57q14 0 30 -94q-147 -702 -147 -736v-8q0 -135 143 -135h6q264 0 320 190q170 821 180 844h37q121 0 158 -94l12 -61 q-12 -82 -272 -1280q-84 -219 -267 -312q-115 -53 -190 -53h-391q-128 0 -144 147z" />
<glyph unicode="Z" horiz-adv-x="1462" d="M102 160q0 72 113 231q256 383 842 1170h-486q-139 18 -139 133v26q10 80 21 80h735q123 0 166 -92l8 -35v-35q0 -76 -244 -409q-188 -281 -704 -985v-4h651l2 -4h4q-39 -236 -213 -236h-608q-77 0 -135 92q-13 37 -13 68z" />
<glyph unicode="[" horiz-adv-x="993" d="M98 143v25q0 27 322 1511q70 113 143 113q0 8 27 8h293l8 -8q-35 -233 -219 -233h-35l-277 -1313q123 0 160 -103l4 -34v-23q-12 -86 -26 -86h-228q-129 0 -168 96z" />
<glyph unicode="\" horiz-adv-x="714" d="M98 1540q0 131 193 215q324 -1495 323 -1532v-4q0 -145 -190 -219q-306 1413 -326 1540z" />
<glyph unicode="]" horiz-adv-x="1007" d="M102 4q0 180 146 236l106 16l289 1343q-135 0 -168 117l-4 35q10 90 25 96h256q133 0 159 -131v-33q-303 -1464 -331 -1556q-57 -127 -218 -127h-251l-5 4h-4z" />
<glyph unicode="^" horiz-adv-x="1261" d="M102 1161l574 637h178q18 -14 121 -248q184 -381 184 -403l-133 -21q-160 0 -219 177l-88 194q-258 -295 -295 -323q-82 -47 -162 -48q-160 21 -160 35z" />
<glyph unicode="_" horiz-adv-x="970" d="M2 -174q12 82 25 82h784q104 0 147 -88q8 -14 9 -49q-9 -74 -25 -74h-760q-133 0 -172 84z" />
<glyph unicode="`" horiz-adv-x="1024" d="M213 1364q0 29 20.5 49.5t53.5 20.5q16 0 39 -13q25 -14 57 -47l291 -295h-70l-330 201q-35 25 -47 41q-14 20 -14 43z" />
<glyph unicode="a" horiz-adv-x="1400" d="M102 8l199 914q135 332 518 331h486v-4q-164 -799 -269 -1249h-41q-98 0 -135 61h-2q-98 -61 -256 -61h-491zM395 236h211q231 0 287 206l121 572h-252q-180 0 -236 -172q-76 -321 -131 -606z" />
<glyph unicode="b" horiz-adv-x="1333" d="M98 12l381 1784l2 4h8q168 0 195 -96l4 -27v-22l-78 -385h244q305 0 373 -271l8 -81q0 -74 -117 -574q-84 -203 -299 -309q-88 -35 -186 -35h-74q-151 0 -240 61q-45 -61 -213 -61q-8 0 -8 12zM424 369q0 -92 74 -117q55 -12 98 -12h61q176 0 244 221l88 438 q0 131 -174 131h-262q-129 -614 -129 -661z" />
<glyph unicode="c" horiz-adv-x="1286" d="M102 322v30q0 102 111 557q152 344 483 344h344q150 -20 150 -143v-4q-6 -88 -25 -88h-495q-184 0 -246 -230q-80 -367 -80 -426q0 -78 49 -102q45 -23 137 -22h295q145 -18 146 -140q-6 -89 -19 -98h-493q-252 0 -332 203q-25 64 -25 119z" />
<glyph unicode="d" horiz-adv-x="1447" d="M102 332v20q0 109 115 576q147 340 496 340h278q78 397 105 444q66 84 166 84h77l7 -6l-381 -1790h-35q-90 0 -152 53q-106 -53 -252 -53h-49q-305 0 -371 274zM344 348q0 -109 182 -108q195 0 260 135q20 0 101 401l53 252h-240q-193 0 -254 -166q-102 -428 -102 -514z " />
<glyph unicode="e" horiz-adv-x="1245" d="M102 334q0 90 115 567q49 127 145 223q154 129 336 129h101q231 0 317 -198q27 -61 27 -150q0 -117 -62 -289q-68 -96 -176 -96h-530l-31 -153v-11q0 -80 88 -110l88 -8h309q145 -14 146 -140v-22q-8 -76 -19 -76h-452q-291 0 -375 190q-27 66 -27 144zM424 758h459 l22 125q-16 131 -106 131l-27 4h-74q-178 0 -239 -139z" />
<glyph unicode="f" horiz-adv-x="1085" d="M102 156q16 104 267 1265q55 162 161 248q141 127 328 127h221l4 -4h4q-20 -131 -65 -166q-74 -76 -248 -76q-102 -37 -149 -129q-29 -53 -68 -266h313l4 -4h5q-18 -121 -58 -162q-58 -74 -166 -74h-151l-193 -915h-65q-102 0 -140 113z" />
<glyph unicode="g" horiz-adv-x="1261" d="M-94 -426q14 96 47 147q74 78 153 78h279q207 0 264 146l37 135l-4 4h-2q-102 -37 -193 -37q-305 0 -376 207q-18 61 -19 113v45q0 88 107 520q141 322 483 321q181 0 264 -55h4q61 55 135 55q78 0 78 -10q-264 -1262 -295 -1358q-74 -176 -233 -256q-127 -57 -221 -57 h-500l-4 2h-4zM319 395q0 -117 150 -116h63q176 0 238 204q84 377 84 422q0 89 -80 111q-55 10 -102 10q-233 0 -277 -233q-70 -318 -76 -398z" />
<glyph unicode="h" horiz-adv-x="1296" d="M102 147v23l347 1630h49q117 0 151 -104l8 -49l-86 -408l4 -2q80 33 201 33h4q326 0 404 -209q18 -68 18 -123v-20q0 -74 -92 -480l-92 -438h-68q-123 0 -139 147v31q139 647 147 723q0 129 -165 129q-190 0 -244 -86q-61 -49 -125 -397l-117 -543l-4 -4h-61 q-122 0 -140 147z" />
<glyph unicode="i" horiz-adv-x="765" d="M98 154q23 137 234 1099h41q101 0 141 -67q18 -35 18 -70v-18q0 -25 -227 -1094l-4 -4h-27q-176 0 -176 154zM410 1606q31 195 45 194h57q141 -18 141 -141v-23q-31 -182 -41 -182h-22q-135 0 -168 90z" />
<glyph unicode="j" horiz-adv-x="1124" d="M-98 -428q22 120 55 154q53 72 221 71q115 25 152 84q45 47 65 172l232 1082q58 117 221 116h24l5 -4h4q-256 -1214 -293 -1362q-74 -172 -240 -264q-109 -53 -227 -53h-211l-4 4h-4zM682 1479q47 254 78 254q53 72 135 71h86v-4q-43 -248 -72 -248q-55 -78 -137 -77h-84 l-4 4h-2z" />
<glyph unicode="k" horiz-adv-x="1396" d="M98 160q8 51 348 1640h66q127 0 143 -151l-182 -873h229q215 0 279 205q49 219 74 219q55 82 190 82h43l4 -2h4q-82 -428 -145 -500q-35 -68 -121 -133v-8q72 -94 72 -217q0 -72 -78 -418l-4 -4h-39q-117 0 -162 96l-8 47v9q41 211 41 245v9q0 125 -164 124h-268 q-104 -526 -115 -526h-65q-100 0 -134 105z" />
<glyph unicode="l" horiz-adv-x="772" d="M102 334v47q0 37 107 532l188 883l4 4h35q129 0 166 -104l4 -45v-4l-256 -1233l-4 -45q0 -98 86 -125q188 0 213 -70q23 -33 23 -88q-12 -86 -23 -86h-160q-316 0 -374 258z" />
<glyph unicode="m" horiz-adv-x="1982" d="M102 164q203 985 234 1085h59q72 0 119 -53q117 57 213 57l78 -4h59q145 0 256 -116q135 121 332 120q227 0 291 -57q143 -98 143 -297q0 -57 -164 -811q-14 -88 -22 -88h-23q-176 0 -176 160q131 633 141 708v17q0 133 -159 133q-236 0 -283 -146q-31 -59 -168 -749 q-25 -113 -33 -123h-47q-106 0 -143 102l-8 54l141 694l6 49q-23 111 -108 111l-43 8q-199 0 -248 -78q-66 -47 -98 -272l-146 -668h-31q-172 0 -172 164z" />
<glyph unicode="n" horiz-adv-x="1286" d="M102 129v18q12 82 230 1092q16 8 49 8h31q59 0 108 -49q95 49 209 49h119q219 0 315 -194q25 -80 25 -133q0 -80 -146 -734q-31 -174 -47 -186h-24q-125 0 -164 94l-8 35v31l139 688l4 53q0 70 -51 90q-59 25 -150 25q-193 0 -258 -195l-176 -817l-4 -4h-29 q-125 0 -163 94z" />
<glyph unicode="o" horiz-adv-x="1234" d="M102 346q0 74 107 537q74 207 231 297q137 72 271 71l26 -4l31 4q268 0 352 -221q14 -39 21 -117q0 -89 -111 -559q-45 -125 -156 -231q-147 -123 -319 -123h-115q-195 0 -297 168q-41 80 -41 178zM344 354q0 -119 150 -118h63q213 0 260 247q80 352 80 404v22 q0 102 -168 103h-27q-166 0 -231 -111q-43 -66 -119 -479q-8 0 -8 -68z" />
<glyph unicode="p" horiz-adv-x="1245" d="M0 -274q12 94 322 1523h26q104 0 148 -55h2q92 55 217 55h10q242 0 295 -61q125 -100 125 -273q0 -76 -111 -538q-135 -334 -499 -334h-238l-102 -475h-52q-109 0 -139 106l-4 33v19zM348 274h4l115 -4h113q184 0 245 201q76 346 84 420v14q0 86 -73 111q-27 8 -80 8h-8 q-203 0 -265 -137q-24 -70 -135 -613z" />
<glyph unicode="q" horiz-adv-x="1280" d="M102 365v24q0 53 88 457q49 190 175 291q143 117 348 116q141 0 258 -55q51 51 141 51h59l9 -6l-357 -1671l-4 -4h-57q-137 16 -137 121v22l65 334h-209q-289 0 -356 199q-23 58 -23 121zM336 373q0 -100 172 -101h235q117 549 123 623v12q0 115 -164 115h-14 q-193 0 -250 -141q-41 -133 -102 -480v-28z" />
<glyph unicode="r" horiz-adv-x="974" d="M102 133v23q16 111 228 1091l4 4h4q133 0 168 -61q106 57 227 57h129l8 -8q-12 -102 -47 -143q-51 -66 -139 -84q-92 0 -172 -117q-41 -76 -106 -434l-103 -461h-45q-109 0 -147 90q-9 14 -9 43z" />
<glyph unicode="s" horiz-adv-x="1400" d="M98 8q23 129 66 164q70 66 153 66h306q182 0 251 147l5 21q0 94 -142 114q-311 0 -393 162q-49 68 -49 164q0 195 248 350q115 57 217 57h543q0 -70 -46 -151q-66 -84 -176 -84h-336q-119 0 -215 -127l-4 -19v-12q0 -52 92 -92l220 -14q101 -22 172 -80 q111 -111 110 -242v-10q0 -213 -272 -369q-100 -53 -207 -53h-535z" />
<glyph unicode="t" horiz-adv-x="937" d="M102 348v4q0 84 129 637l170 807h29q178 0 178 -149l-76 -379h148q158 -23 158 -152q-8 -88 -25 -88h-328q-12 0 -82 -371q-57 -231 -57 -295q0 -108 123 -122q186 0 186 -158q-10 -82 -18 -82h-135q-292 0 -375 209q-25 67 -25 139z" />
<glyph unicode="u" horiz-adv-x="1282" d="M102 330v28q0 47 131 656l54 239h49q129 0 153 -114l5 -37l-150 -740q0 -125 160 -124q231 0 295 155l186 860h57q145 -16 146 -145v-6q-16 -106 -230 -1098l-4 -4h-45q-82 0 -131 57h-2q-102 -57 -256 -57h-22q-276 0 -365 180q-31 78 -31 150z" />
<glyph unicode="v" horiz-adv-x="1224" d="M152 1251h75q133 0 183 -155l61 -578h4q326 608 354 641q88 92 203 92h92l6 -8l-665 -1243h-21q-131 0 -172 115q-14 61 -120 1136z" />
<glyph unicode="w" horiz-adv-x="2013" d="M102 324v45q0 61 107 532q68 336 78 346h63q141 -18 142 -133v-6l-150 -727v-27q0 -119 164 -118h31q231 0 280 247q123 600 141 654h58q89 0 129 -80q14 -29 14 -72v-4l-121 -600v-16l-4 -5q0 -125 172 -124q221 0 289 172l160 725q55 119 239 118h15l4 -4v-4 q-160 -771 -203 -915q-147 -328 -508 -328h-51q-174 0 -285 125q-162 -125 -321 -125h-43q-272 0 -361 168q-39 78 -39 156z" />
<glyph unicode="x" horiz-adv-x="1382" d="M102 160q45 293 131 393q82 86 95 86v8q-70 94 -70 207q0 57 78 391l4 4h53q121 0 146 -121l6 -18q-41 -184 -41 -238q0 -117 135 -116q211 0 250 63q92 98 92 203l51 231h33q127 0 160 -88q10 -14 10 -55v-16q-33 -201 -66 -267q-41 -92 -129 -180q-23 -12 -22 -22 q66 -100 65 -195v-37q0 -51 -77 -393h-58q-113 0 -143 111l-4 39l41 239v4q0 129 -191 129q-194 0 -258 -160q-18 -49 -84 -362h-53q-104 0 -141 90q-13 25 -13 70z" />
<glyph unicode="y" horiz-adv-x="1286" d="M0 -287q12 82 23 82h444q190 0 248 150q14 43 30 133h-4q-92 -35 -184 -35h-41q-270 0 -350 213q-16 61 -16 102v39q0 61 124 623q41 201 54 227h57q98 0 131 -106l4 -43l-137 -690v-5q0 -131 133 -131h31q203 0 270 154l176 821l4 4h31q135 0 162 -110l4 -37v-2 q-8 -57 -256 -1200q-72 -195 -229 -277q-121 -57 -226 -57h-344q-125 0 -139 145z" />
<glyph unicode="z" horiz-adv-x="1396" d="M102 141v9q0 63 54 98l747 764v4h-389q-160 0 -190 102l-7 41q8 88 23 92h752q145 -23 145 -137l2 -4v-4q0 -92 -195 -283q-176 -186 -598 -587h416q133 0 156 -134v-22q-6 -80 -19 -80h-737q-119 0 -156 94z" />
<glyph unicode="{" horiz-adv-x="1140" d="M102 743l58 244q96 0 96 53q68 391 135 459q164 229 467 230h180l9 -9q-43 -154 -111 -196q-35 -37 -168 -56q-111 -31 -158 -104q-57 -66 -75 -201q-43 -238 -97 -311l8 -59q0 -47 -63 -357v-45q0 -100 109 -131q100 -12 139 -47q51 -53 51 -125v-25q0 -63 -10 -63h-21 q-324 0 -395 72q-141 88 -141 280q0 33 71 387h-75l-5 4h-4z" />
<glyph unicode="|" horiz-adv-x="645" d="M203 180v1659l8 8h68q119 0 163 -131l9 -55v-1653l-9 -8h-36q-139 0 -189 104q-14 41 -14 76z" />
<glyph unicode="}" horiz-adv-x="1140" d="M98 4q39 147 125 211q47 33 185 53q76 31 127 92q51 57 88 244q31 176 59 232l25 36l-5 60v4q0 53 66 369v26q0 106 -113 142q-127 0 -176 104q-16 43 -16 68l4 79l4 5h152q289 0 385 -205q23 -59 22 -123v-37q0 -39 -72 -373h5q80 0 79 -10l-51 -242h-41q-59 0 -59 -75 q-63 -328 -109 -392q-72 -152 -282 -235q-80 -37 -326 -37h-68l-4 4h-4z" />
<glyph unicode="~" horiz-adv-x="1013" d="M94 555v158q65 74 123 98q63 27 115 27q63 0 180 -50q121 -51 172 -51t109 29q55 29 131 113v-156q-70 -76 -123 -98q-63 -27 -117 -27q-59 0 -176 49t-176 49q-51 0 -109 -28q-51 -27 -129 -113z" />
<glyph unicode="&#xa2;" horiz-adv-x="1138" />
<glyph unicode="&#xa3;" horiz-adv-x="1013" d="M76 674v59h135q-57 141 -57 252q0 227 122 348q125 121 308 121h4q82 0 184 -14q111 -14 111 -33v-162h-58q-6 61 -77 103q-71 31 -160 30h-2q-102 0 -191 -100q-84 -94 -84 -242q0 -4 1 -14t1 -16q0 -131 54 -273h358v-59h-334q20 -41 33 -62q35 -66 35 -137 q0 -162 -162 -375h401q131 0 189 131h49l-102 -231h-719v49q186 236 186 420q0 78 -33 141q-8 12 -18 36t-12 28h-162z" />
<glyph unicode="&#xa5;" horiz-adv-x="1261" d="M8 1176q0 18 10 28q8 8 33 8q39 0 123 -8t164 -8h57h31q33 0 41 -6t8 -27q0 -8 -14.5 -14t-38.5 -6q-10 0 -18.5 2t-18.5 2q-23 0 -37 -10.5t-14 -24.5t16 -51q14 -33 47 -78l158 -221l15.5 -23.5t17.5 -29.5q39 -70 71 -70q12 0 17 4q10 10 14 16l277 396q8 10 14 26 q4 10 4 25q0 16 -10 27q-8 8 -37 14q-6 2 -20.5 3t-20.5 1q-47 4 -47 25q0 16 8 22q12 8 25 8l5 -1q5 -1 9 -1q55 -6 109 -6h139h65q10 0 18.5 1t13.5 1h5q10 0 18.5 -4t8.5 -12q0 -27 -37 -33q-20 -4 -29 -6q-61 -14 -145 -117q-2 -4 -6 -8l-6 -6l-170 -207h323q15 0 25 -6 q8 -6 8 -17q0 -14 -6 -20t-23 -6h-366q-31 -39 -97 -113q-49 -55 -53 -59h512q18 0 25 -6q8 -8 8 -17q0 -14 -6 -20q-8 -8 -23 -8h-530v-31q0 -6 -1 -16.5t-1 -12.5l2 -215q0 -113 6 -149.5t21 -44.5q25 -14 106 -19q78 -4 78 -31q0 -10 -10 -20q-8 -8 -25 -8l-4 1 q-4 1 -12.5 2t-18.5 1q-45 4 -65 4q-53 0 -209 -4q-33 0 -66 -1t-51 -2t-25 -1q-29 0 -41 4q-8 2 -8 16q0 12 8 19q9 6 37 12q4 2 12.5 3t12.5 1q70 14 92 33q18 12 25 47q6 33 6 102l-2 242q0 6 -1 18.5t-1 16.5q0 12 -4 33h-484q-14 0 -20 6q-8 8 -8 20t6 18.5t22 6.5h467 l-121 172h-344q-18 0 -24 6t-6 18.5t6 18.5t22 6h307q-59 80 -108 156q-132 197 -227 196q-6 0 -12.5 6.5t-6.5 10.5z" />
<glyph unicode="&#xa9;" horiz-adv-x="1673" d="M100 719q0 147 56 282q53 131 159 238q100 104 238 160q139 57 287 57q141 0 280 -57q135 -55 239.5 -159.5t158.5 -238.5q57 -143 57 -282q0 -143 -57 -283q-55 -137 -162 -239q-104 -104 -239.5 -159.5t-282.5 -55.5q-145 0 -279 55q-125 53 -238 162 q-104 102 -161 237q-56 132 -56 283zM160 719q0 -139 51 -260q53 -125 147 -219q98 -94 220 -148q113 -49 256 -49q137 0 260 49q117 47 219 146q96 96 149 221q51 121 51 260q0 135 -51 258q-49 121 -145 219q-94 94 -219 147.5t-258 53.5t-262 -54q-126 -52 -222 -147 q-90 -90 -145 -219q-51 -121 -51 -258zM350 719q0 125 66 244q63 117 188 184q123 68 254 67q39 0 76 -6q39 -6 76 -20q2 0 5 -1l3 -1q20 0 26 31h41l72 -199h-43q-51 94 -131 125q-70 25 -147 24h-15q-92 -10 -166 -69q-84 -68 -123 -178q-33 -86 -32 -185q0 -33 2 -49 q12 -121 69 -223q59 -104 150 -154q68 -37 166 -41q125 0 194.5 55.5t69.5 127.5h53v-101q0 -45 -96 -86q-98 -41 -244 -41q-141 0 -264 68q-119 66 -184.5 184.5t-65.5 243.5z" />
<glyph unicode="&#xad;" d="M104 801q12 96 25 96h784q104 0 148 -104q8 -16 8 -56q-8 -88 -25 -88h-759q-133 0 -172 101z" />
<glyph unicode="&#xae;" horiz-adv-x="1673" d="M100 719q0 147 56 282q53 131 159 238q100 104 238 160q139 57 287 57q141 0 280 -57q135 -55 239.5 -159.5t158.5 -238.5q57 -143 57 -282q0 -143 -57 -283q-55 -137 -162 -239q-104 -104 -239.5 -159.5t-282.5 -55.5q-145 0 -279 55q-125 53 -238 162 q-104 102 -161 237q-56 132 -56 283zM160 719q0 -139 51 -260q53 -125 147 -219q98 -94 220 -148q113 -49 256 -49q137 0 260 49q117 47 219 146q96 96 149 221q51 121 51 260q0 135 -51 258q-49 121 -145 219q-94 94 -219 147.5t-258 53.5t-262 -54q-126 -52 -222 -147 q-90 -90 -145 -219q-51 -121 -51 -258zM524 268v51h43q37 0 37 121v539q0 121 -37 121h-43v69h357q59 0 125 -43q57 -37 92 -112q33 -72 32 -154q0 -72 -32 -149q-31 -72 -115 -136l84 -114q100 -141 150 -142h32v-51h-346v51h45q31 0 31 23q0 25 -70 113l-73 102 q-43 0 -84 41v-158q0 -121 34 -121h54v-51h-316zM752 725l2 -8q20 -53 57 -80q29 -23 55 -23h6q29 2 62 39t47 97q12 49 12 104q0 4 -1 12t-1 15q-2 68 -26 123q-25 61 -58 77q-35 18 -63 19h-92v-375z" />
<glyph unicode="&#xb4;" horiz-adv-x="1024" d="M315 1077l291 297q37 37 56 47q23 12 40 13q33 0 53.5 -20.5t20.5 -49.5q0 -23 -14 -43q-12 -16 -47 -41l-330 -203h-70z" />
<glyph unicode="&#x2000;" horiz-adv-x="923" />
<glyph unicode="&#x2001;" horiz-adv-x="1847" />
<glyph unicode="&#x2002;" horiz-adv-x="923" />
<glyph unicode="&#x2003;" horiz-adv-x="1847" />
<glyph unicode="&#x2004;" horiz-adv-x="614" />
<glyph unicode="&#x2005;" horiz-adv-x="460" />
<glyph unicode="&#x2006;" horiz-adv-x="307" />
<glyph unicode="&#x2007;" horiz-adv-x="307" />
<glyph unicode="&#x2008;" horiz-adv-x="229" />
<glyph unicode="&#x2009;" horiz-adv-x="368" />
<glyph unicode="&#x200a;" horiz-adv-x="100" />
<glyph unicode="&#x2010;" d="M104 801q12 96 25 96h784q104 0 148 -104q8 -16 8 -56q-8 -88 -25 -88h-759q-133 0 -172 101z" />
<glyph unicode="&#x2011;" d="M104 801q12 96 25 96h784q104 0 148 -104q8 -16 8 -56q-8 -88 -25 -88h-759q-133 0 -172 101z" />
<glyph unicode="&#x2012;" d="M104 801q12 96 25 96h784q104 0 148 -104q8 -16 8 -56q-8 -88 -25 -88h-759q-133 0 -172 101z" />
<glyph unicode="&#x2013;" horiz-adv-x="1107" d="M55 420v119h998v-119h-998z" />
<glyph unicode="&#x2014;" horiz-adv-x="2048" d="M0 420v119h2048v-119h-2048z" />
<glyph unicode="&#x2018;" horiz-adv-x="555" d="M186 1233q0 113 70 227q72 117 139 117v-43q-70 -41 -86 -191q0 -117 129 -159v-43l-119 -125q-45 0 -88 65q-45 68 -45 152z" />
<glyph unicode="&#x2019;" horiz-adv-x="555" d="M119 1409v43l119 125q45 0 88 -66q45 -68 45 -151q0 -109 -72 -227q-70 -117 -137 -117v43q70 41 86 190q0 117 -129 160z" />
<glyph unicode="&#x201c;" horiz-adv-x="909" d="M186 1233q0 113 70 227q72 117 139 117v-43q-70 -41 -86 -191q0 -117 129 -159v-43l-119 -125q-45 0 -88 65q-45 68 -45 152zM539 1233q0 109 71 227q70 117 140 117v-43q-72 -43 -88 -191q0 -117 129 -159v-43l-119 -125q-45 0 -88 65q-45 68 -45 152z" />
<glyph unicode="&#x201d;" horiz-adv-x="909" d="M119 1409v43l119 125q45 0 88 -66q45 -68 45 -151q0 -109 -72 -227q-70 -117 -137 -117v43q70 41 86 190q0 117 -129 160zM471 1409v43l121 125q45 0 88 -66q45 -68 45 -151q0 -109 -72 -227q-72 -117 -139 -117v43q70 41 86 190q0 117 -129 160z" />
<glyph unicode="&#x2022;" horiz-adv-x="1024" d="M215 719q0 121 88 209q86 86 209 86q121 0 209 -88t88 -207q0 -123 -88 -211q-86 -86 -209 -86q-125 0 -211 86t-86 211z" />
<glyph unicode="&#x2026;" horiz-adv-x="2048" d="M129 135q0 16 16 33l82 84q12 12 29 12q14 0 31 -14l80 -86q12 -16 12 -31q0 -16 -14 -31l-80 -88q-18 -18 -29 -18q-18 0 -29 12l-88 103q-10 14 -10 24zM811 135q0 16 16 33l82 84q12 12 28.5 12t33.5 -14l80 -86q12 -16 12 -31q0 -16 -14 -31l-80 -88q-18 -18 -31 -18 q-18 0 -29 12l-88 103q-10 14 -10 24zM1495 135q0 16 16 33l82 84q12 12 29 12q14 0 31 -14l80 -86q12 -16 12 -31q0 -16 -14 -31l-80 -88q-18 -18 -29 -18q-18 0 -29 12l-88 103q-10 14 -10 24z" />
<glyph unicode="&#x202f;" horiz-adv-x="368" />
<glyph unicode="&#x205f;" horiz-adv-x="460" />
<glyph unicode="&#x20ac;" horiz-adv-x="1013" d="M-43 653l16 60h86v28q0 4 1 14.5t1 16.5h-71l16 62h60q16 150 75 280q80 178 225.5 274.5t299.5 96.5q47 0 86 -8q33 -8 82 -29q10 -6 16 -6q20 0 35 45h41l84 -283h-41q-49 135 -138 178q-41 20 -81 31v4q-53 16 -101 17q-23 0 -35 -2q-117 -12 -225 -115 q-104 -98 -158 -273q-33 -113 -38 -210h706l-16 -62h-693q0 -39 3 -59h673l-16 -60h-653q18 -156 84 -299q74 -156 192 -235q104 -70 215 -70q184 2 256 92q76 94 76 185h47v-144q0 -68 -111 -127q-98 -51 -268 -55q-181 0 -326 98q-141 96 -223 275q-59 133 -76 280h-106z " />
<glyph unicode="&#x2122;" horiz-adv-x="1495" />
<glyph unicode="&#xe000;" horiz-adv-x="1255" d="M0 1255h1255v-1255h-1255v1255z" />
<glyph unicode="&#xf001;" horiz-adv-x="1734" d="M98 156q10 74 269 1265q55 162 161 248q141 127 328 127h221l4 -4h2q-23 -133 -63 -166q-74 -76 -250 -76q-102 -37 -149 -129q-25 -47 -66 -266h313l4 -4h5q-18 -117 -60 -162q-58 -74 -166 -74h-149q-59 -299 -195 -915h-65q-102 0 -140 113zM1071 154q23 137 234 1099 h41q101 0 141 -67q18 -35 18 -70v-18q0 -25 -227 -1094l-4 -4h-27q-176 0 -176 154zM1382 1606q31 195 45 194h60q139 -18 139 -141v-23q-31 -182 -41 -182h-22q-135 0 -168 90z" />
<glyph unicode="&#xfb01;" horiz-adv-x="1734" d="M98 156q10 74 269 1265q55 162 161 248q141 127 328 127h221l4 -4h2q-23 -133 -63 -166q-74 -76 -250 -76q-102 -37 -149 -129q-25 -47 -66 -266h313l4 -4h5q-18 -117 -60 -162q-58 -74 -166 -74h-149q-59 -299 -195 -915h-65q-102 0 -140 113zM1071 154q23 137 234 1099 h41q101 0 141 -67q18 -35 18 -70v-18q0 -25 -227 -1094l-4 -4h-27q-176 0 -176 154zM1382 1606q31 195 45 194h60q139 -18 139 -141v-23q-31 -182 -41 -182h-22q-135 0 -168 90z" />
<glyph unicode="&#xf002;" horiz-adv-x="1740" d="M98 156q10 74 269 1265q55 162 161 248q141 127 328 127h221l4 -4h2q-23 -133 -63 -166q-74 -76 -250 -76q-102 -37 -149 -129q-25 -47 -66 -266h313l4 -4h5q-18 -117 -60 -162q-58 -74 -166 -74h-149q-59 -299 -195 -915h-65q-102 0 -140 113zM1085 334v47q0 37 107 532 l188 883l4 4h35q129 0 166 -104l4 -45v-4l-256 -1233l-4 -45q0 -98 86 -125q188 0 213 -70q23 -33 23 -88q-12 -86 -23 -86h-160q-316 0 -374 258z" />
<glyph unicode="&#xfb02;" horiz-adv-x="1740" d="M98 156q10 74 269 1265q55 162 161 248q141 127 328 127h221l4 -4h2q-23 -133 -63 -166q-74 -76 -250 -76q-102 -37 -149 -129q-25 -47 -66 -266h313l4 -4h5q-18 -117 -60 -162q-58 -74 -166 -74h-149q-59 -299 -195 -915h-65q-102 0 -140 113zM1085 334v47q0 37 107 532 l188 883l4 4h35q129 0 166 -104l4 -45v-4l-256 -1233l-4 -45q0 -98 86 -125q188 0 213 -70q23 -33 23 -88q-12 -86 -23 -86h-160q-316 0 -374 258z" />
<glyph unicode="&#xfb03;" horiz-adv-x="2938" d="M2271 154q23 137 234 1099h41q101 0 141 -67q18 -35 18 -70v-18q0 -25 -227 -1094l-4 -4h-27q-176 0 -176 154zM2583 1606q31 195 45 194h57q141 -18 141 -141v-23q-31 -182 -41 -182h-22q-135 0 -168 90zM1187 156q16 104 267 1265q55 162 161 248q141 127 328 127h221 l4 -4h4q-20 -131 -65 -166q-74 -76 -248 -76q-102 -37 -149 -129q-29 -53 -68 -266h313l4 -4h5q-18 -121 -58 -162q-58 -74 -166 -74h-151l-193 -915h-65q-102 0 -140 113zM102 156q16 104 267 1265q55 162 161 248q141 127 328 127h221l4 -4h4q-20 -131 -65 -166 q-74 -76 -248 -76q-102 -37 -149 -129q-29 -53 -68 -266h313l4 -4h5q-18 -121 -58 -162q-58 -74 -166 -74h-151l-193 -915h-65q-102 0 -140 113z" />
<glyph unicode="&#xfb04;" horiz-adv-x="2945" d="M2275 334v47q0 37 107 532l188 883l4 4h35q129 0 166 -104l4 -45v-4l-256 -1233l-4 -45q0 -98 86 -125q188 0 213 -70q23 -33 23 -88q-12 -86 -23 -86h-160q-316 0 -374 258zM1187 156q16 104 267 1265q55 162 161 248q141 127 328 127h221l4 -4h4q-20 -131 -65 -166 q-74 -76 -248 -76q-102 -37 -149 -129q-29 -53 -68 -266h313l4 -4h5q-18 -121 -58 -162q-58 -74 -166 -74h-151l-193 -915h-65q-102 0 -140 113zM102 156q16 104 267 1265q55 162 161 248q141 127 328 127h221l4 -4h4q-20 -131 -65 -166q-74 -76 -248 -76 q-102 -37 -149 -129q-29 -53 -68 -266h313l4 -4h5q-18 -121 -58 -162q-58 -74 -166 -74h-151l-193 -915h-65q-102 0 -140 113z" />
</font>
</defs>
</svg>
